<svg id="Group_2496" data-name="Group 2496" xmlns="http://www.w3.org/2000/svg" width="957.251" height="283.629" viewBox="0 0 957.251 283.629">
  <g id="Group_2492" data-name="Group 2492">
    <rect id="Rectangle_2027" data-name="Rectangle 2027" width="957.25" height="283.63" rx="40"/>
    <g id="Group_2491" data-name="Group 2491" transform="translate(0.001)">
      <g id="Group_2480" data-name="Group 2480">
        <path id="Path_1103" data-name="Path 1103" d="M988.01,205.439a29.814,29.814,0,0,1,29.779,29.781V447.943a29.815,29.815,0,0,1-29.779,29.784H101.667a29.815,29.815,0,0,1-29.781-29.784V235.22a29.815,29.815,0,0,1,29.781-29.781H988.01m0-5.672H101.667A35.557,35.557,0,0,0,66.214,235.22V447.943A35.557,35.557,0,0,0,101.667,483.4H988.01a35.557,35.557,0,0,0,35.453-35.453V235.22a35.557,35.557,0,0,0-35.453-35.453Z" transform="translate(-66.214 -199.767)" fill="#a6a6a6"/>
      </g>
    </g>
  </g>
  <g id="Group_2493" data-name="Group 2493" transform="translate(303.581 123.124)">
    <path id="Path_1123" data-name="Path 1123" d="M288.543,1004.42l-33.461,98.5h15.324l9.989-30.244h32.4l10.273,30.244h15.747l-33.606-98.5Zm7.94,16.194c1.13,4.4,2.349,8.962,3.916,13.9l9.017,26.115H283.752l8.893-26.287C294,1030.078,295.284,1025.475,296.483,1020.614Z" transform="translate(-255.082 -1002.851)" fill="#fff"/>
    <path id="Path_1124" data-name="Path 1124" d="M345.93,1019.586c-10.15,0-18.279,3.918-23.691,11.366l-.594-9.8h-13.63l.081,1.253c.4,6.1.569,12.82.569,22.464v75.919h14.9v-35.429c4.623,5.532,12.005,8.753,20.371,8.753a30.721,30.721,0,0,0,22.58-9.6c6.529-6.9,9.97-16.815,9.97-28.663,0-10.47-2.99-19.522-8.657-26.173A28.355,28.355,0,0,0,345.93,1019.586Zm-3.712,12.337c13.285,0,19.23,12.307,19.23,24.5,0,15.728-7.586,25.5-19.8,25.5a18.067,18.067,0,0,1-17.556-13.829,19.011,19.011,0,0,1-.529-4.823v-11.983a22.459,22.459,0,0,1,.473-3.679c.074-.407.155-.815.214-1.209C326.476,1037.871,333.854,1031.923,342.217,1031.923Z" transform="translate(-216.136 -992.484)" fill="#fff"/>
    <path id="Path_1125" data-name="Path 1125" d="M391.508,1019.586c-10.147,0-18.275,3.918-23.693,11.366l-.594-9.8H353.6l.076,1.253c.4,6.11.574,12.82.574,22.464v75.919h14.9v-35.429c4.623,5.532,12,8.753,20.364,8.753a30.763,30.763,0,0,0,22.592-9.6c6.517-6.9,9.965-16.815,9.965-28.663,0-10.47-3-19.522-8.664-26.173A28.343,28.343,0,0,0,391.508,1019.586Zm-3.709,12.337c13.278,0,19.225,12.307,19.225,24.5,0,15.728-7.591,25.5-19.794,25.5a18.067,18.067,0,0,1-17.556-13.829,19.026,19.026,0,0,1-.525-4.823v-11.983a22.13,22.13,0,0,1,.475-3.69c.074-.4.148-.8.216-1.2C372.055,1037.871,379.434,1031.923,387.8,1031.923Z" transform="translate(-184.978 -992.484)" fill="#fff"/>
    <path id="Path_1126" data-name="Path 1126" d="M447.623,1046.791c-13.908-5.386-18.365-9.622-18.365-17.447,0-6.589,5.236-13.236,16.938-13.236,9.654,0,15.829,3.357,17.494,4.393l1.263.78,4.206-12.437-.832-.486c-2.5-1.463-9.611-4.869-21.7-4.869-19,0-32.277,11.219-32.277,27.277,0,12.952,8.312,22,26.156,28.491,12.647,4.727,17.354,9.569,17.354,17.871,0,9.4-7.263,15.226-18.942,15.226a40.784,40.784,0,0,1-21.479-6.091l-1.293-.828-4,12.724.736.487c5.627,3.756,16.215,6.474,25.185,6.474,25.612,0,34.693-15.617,34.693-28.99C472.759,1062.34,465.479,1053.839,447.623,1046.791Z" transform="translate(-147.718 -1003.488)" fill="#fff"/>
    <path id="Path_1127" data-name="Path 1127" d="M474.361,1010.439l-14.617,4.588v12.381h-10.7v11.91h10.7V1075.8c0,8.819,1.687,15,5.16,18.907,3.33,3.65,8.45,5.66,14.418,5.66a35.114,35.114,0,0,0,11.519-1.778l.835-.3-.714-11.931-1.429.439a22.436,22.436,0,0,1-6.931.8c-5.775,0-8.241-3.653-8.241-12.231v-36.053h17.977v-11.91H474.361Z" transform="translate(-119.731 -998.736)" fill="#fff"/>
    <path id="Path_1128" data-name="Path 1128" d="M511.073,1019.586c-20.851,0-35.411,15.563-35.411,37.835,0,21.607,14.09,36.694,34.271,36.694h.138c17.058,0,35.411-11.883,35.411-37.977,0-10.61-3.281-19.723-9.5-26.358C529.733,1023.115,521.115,1019.586,511.073,1019.586Zm-.431,11.765c13.406,0,19.509,13.069,19.509,25.218,0,14.938-8.329,25.781-19.792,25.781h-.145c-11.3,0-19.5-10.662-19.5-25.35C490.71,1044.235,496.875,1031.351,510.642,1031.351Z" transform="translate(-96.012 -992.484)" fill="#fff"/>
    <path id="Path_1129" data-name="Path 1129" d="M559.305,1020.278l-.894-.227a14.338,14.338,0,0,0-3.705-.465c-7.8,0-14.79,4.591-18.684,12l-.438-10.428H522.211l.086,1.253c.4,5.9.562,12.521.562,21.459l-.138,48.682h14.9v-37.979a38.439,38.439,0,0,1,.411-5.777c1.68-9.122,7.837-15.017,15.679-15.017a38.1,38.1,0,0,1,4,.249l1.594.165Z" transform="translate(-61.429 -992.484)" fill="#fff"/>
    <path id="Path_1130" data-name="Path 1130" d="M577.824,1019.5c-19.838,0-33.693,15.851-33.693,38.547,0,21.856,13.783,35.983,35.121,35.983,11.219,0,19.026-2.463,23.594-4.527l.9-.4L600.879,1078l-1.242.5c-4.062,1.652-9.462,3.339-18.671,3.339-6.475,0-21.407-2.135-22.321-21.607l48.1.145.194-.951a33.133,33.133,0,0,0,.448-6.219C607.386,1037.656,599.645,1019.5,577.824,1019.5Zm-.992,11.337c4.537,0,8.219,1.4,10.94,4.173,4.288,4.364,5.037,10.789,5.133,13.873H558.918C560.3,1040.281,565.686,1030.839,576.833,1030.839Z" transform="translate(-43.683 -992.541)" fill="#fff"/>
  </g>
  <text id="Coming_soon_on" data-name="Coming soon on" transform="translate(307.574 93.334)" fill="#fff" font-size="63" font-family="SegoeUI-Semibold, Segoe UI" font-weight="600"><tspan x="0" y="0">Coming soon on</tspan></text>
  <g id="Group_2495" data-name="Group 2495" transform="translate(91.888 44.255)">
    <path id="Path_1121" data-name="Path 1121" d="M286.29,1079.79c-4.227,9.369-6.25,13.549-11.691,21.83-7.6,11.561-18.3,25.957-31.556,26.079-11.786.109-14.812-7.671-30.8-7.584s-19.331,7.72-31.119,7.611c-13.26-.123-23.4-13.122-31-24.682-21.235-32.324-23.453-70.26-10.358-90.427,9.308-14.333,23.987-22.721,37.793-22.721,14.056,0,22.892,7.709,34.513,7.709,11.272,0,18.143-7.721,34.392-7.721,12.283,0,25.3,6.687,34.573,18.255C250.654,1024.789,255.588,1068.189,286.29,1079.79Z" transform="translate(-131.637 -947.751)" fill="#fff"/>
    <g id="Group_2486" data-name="Group 2486" transform="translate(74.334)">
      <path id="Path_1122" data-name="Path 1122" d="M208.375,991.574c5.9-7.577,10.387-18.281,8.76-29.219-9.642.665-20.926,6.8-27.514,14.8-5.978,7.265-10.914,18.036-8.991,28.5C191.157,1005.982,202.049,999.695,208.375,991.574Z" transform="translate(-180.207 -962.355)" fill="#fff"/>
    </g>
  </g>
</svg>
