<svg id="Group_2497" data-name="Group 2497" xmlns="http://www.w3.org/2000/svg" xmlns:xlink="http://www.w3.org/1999/xlink" width="957.251" height="283.629" viewBox="0 0 957.251 283.629">
  <defs>
    <linearGradient id="linear-gradient" x1="0.915" y1="0.979" x2="-0.383" y2="0.309" gradientUnits="objectBoundingBox">
      <stop offset="0" stop-color="#00a0ff"/>
      <stop offset="0.007" stop-color="#00a1ff"/>
      <stop offset="0.26" stop-color="#00beff"/>
      <stop offset="0.512" stop-color="#00d2ff"/>
      <stop offset="0.76" stop-color="#00dfff"/>
      <stop offset="1" stop-color="#00e3ff"/>
    </linearGradient>
    <linearGradient id="linear-gradient-2" x1="1.076" y1="0.583" x2="-1.305" y2="0.583" gradientUnits="objectBoundingBox">
      <stop offset="0" stop-color="#ffe000"/>
      <stop offset="0.409" stop-color="#ffbd00"/>
      <stop offset="0.775" stop-color="orange"/>
      <stop offset="1" stop-color="#ff9c00"/>
    </linearGradient>
    <linearGradient id="linear-gradient-3" x1="0.862" y1="-0.123" x2="-0.501" y2="-1.893" gradientUnits="objectBoundingBox">
      <stop offset="0" stop-color="#ff3a44"/>
      <stop offset="1" stop-color="#c31162"/>
    </linearGradient>
    <linearGradient id="linear-gradient-4" x1="-0.188" y1="2.597" x2="0.421" y2="1.806" gradientUnits="objectBoundingBox">
      <stop offset="0" stop-color="#32a071"/>
      <stop offset="0.068" stop-color="#2da771"/>
      <stop offset="0.476" stop-color="#15cf74"/>
      <stop offset="0.801" stop-color="#06e775"/>
      <stop offset="1" stop-color="#00f076"/>
    </linearGradient>
  </defs>
  <rect id="Rectangle_2026" data-name="Rectangle 2026" width="957.25" height="283.63" rx="42"/>
  <g id="Group_2481" data-name="Group 2481" transform="translate(0.001)">
    <g id="Group_2480" data-name="Group 2480">
      <path id="Path_1103" data-name="Path 1103" d="M988.01,205.439a29.814,29.814,0,0,1,29.779,29.781V447.943a29.815,29.815,0,0,1-29.779,29.784H101.667a29.815,29.815,0,0,1-29.781-29.784V235.22a29.815,29.815,0,0,1,29.781-29.781H988.01m0-5.672H101.667A35.557,35.557,0,0,0,66.214,235.22V447.943A35.557,35.557,0,0,0,101.667,483.4H988.01a35.557,35.557,0,0,0,35.453-35.453V235.22a35.557,35.557,0,0,0-35.453-35.453Z" transform="translate(-66.214 -199.767)" fill="#a6a6a6"/>
    </g>
  </g>
  <g id="Group_2482" data-name="Group 2482" transform="translate(293.216 48.683)">
    <path id="Path_1104" data-name="Path 1104" d="M225.5,243.019q0,8.912-5.283,14.2-6,6.295-15.631,6.295a22.223,22.223,0,1,1,0-44.446,21.94,21.94,0,0,1,8.733,1.783,17.554,17.554,0,0,1,6.655,4.754l-3.74,3.742Q212,224.3,204.583,224.3a16.994,16.994,0,1,0,11.883,29.237,13.376,13.376,0,0,0,3.566-8.617H204.583v-5.112H225.2A18.175,18.175,0,0,1,225.5,243.019Z" transform="translate(-182.481 -219.071)" fill="#fff" stroke="#fff" stroke-miterlimit="10" stroke-width="0.2"/>
    <path id="Path_1105" data-name="Path 1105" d="M227.487,224.677H208.111v13.487h17.472v5.112H208.111v13.487h19.376v5.228H202.649V219.449h24.838Z" transform="translate(-151.787 -218.496)" fill="#fff" stroke="#fff" stroke-miterlimit="10" stroke-width="0.2"/>
    <path id="Path_1106" data-name="Path 1106" d="M232.11,261.991h-5.47V224.677H214.757v-5.228h29.237v5.228H232.11Z" transform="translate(-133.36 -218.496)" fill="#fff" stroke="#fff" stroke-miterlimit="10" stroke-width="0.2"/>
    <path id="Path_1107" data-name="Path 1107" d="M234.738,261.991V219.449H240.2v42.542Z" transform="translate(-102.95 -218.496)" fill="#fff" stroke="#fff" stroke-miterlimit="10" stroke-width="0.2"/>
    <path id="Path_1108" data-name="Path 1108" d="M256.991,261.991h-5.47V224.677H239.64v-5.228h29.234v5.228H256.991Z" transform="translate(-95.49 -218.496)" fill="#fff" stroke="#fff" stroke-miterlimit="10" stroke-width="0.2"/>
    <path id="Path_1109" data-name="Path 1109" d="M295.786,257.069a22.089,22.089,0,0,1-31.2,0,22.983,22.983,0,0,1,0-31.547,22.016,22.016,0,0,1,31.168.028,22.918,22.918,0,0,1,.028,31.519Zm-27.159-3.561a16.357,16.357,0,0,0,23.113,0,18.134,18.134,0,0,0,0-24.425,16.357,16.357,0,0,0-23.113,0,18.149,18.149,0,0,0,0,24.425Z" transform="translate(-67.056 -219.071)" fill="#fff" stroke="#fff" stroke-miterlimit="10" stroke-width="0.2"/>
    <path id="Path_1110" data-name="Path 1110" d="M278.7,261.991V219.449h6.653l20.677,33.1h.237l-.237-8.2v-24.9h5.47v42.542h-5.7l-21.633-34.7h-.234l.234,8.2v26.5Z" transform="translate(-36.037 -218.496)" fill="#fff" stroke="#fff" stroke-miterlimit="10" stroke-width="0.2"/>
  </g>
  <path id="Path_1111" data-name="Path 1111" d="M373.727,281.055c-16.68,0-30.273,12.68-30.273,30.157,0,17.363,13.593,30.16,30.273,30.16S404,328.576,404,311.212C404,293.735,390.4,281.055,373.727,281.055Zm0,48.436c-9.139,0-17.02-7.541-17.02-18.279,0-10.852,7.881-18.276,17.02-18.276s17.02,7.425,17.02,18.276C390.747,321.951,382.867,329.491,373.727,329.491Zm-66.039-48.436c-16.68,0-30.273,12.68-30.273,30.157,0,17.363,13.593,30.16,30.273,30.16s30.271-12.8,30.271-30.16C337.959,293.735,324.366,281.055,307.688,281.055Zm0,48.436c-9.139,0-17.02-7.541-17.02-18.279,0-10.852,7.881-18.276,17.02-18.276s17.02,7.425,17.02,18.276C324.709,321.951,316.828,329.491,307.688,329.491Zm-78.558-39.183V303.1h30.616c-.915,7.2-3.314,12.451-6.968,16.107-4.456,4.456-11.424,9.366-23.648,9.366-18.849,0-33.584-15.192-33.584-34.041s14.736-34.043,33.584-34.043a32.629,32.629,0,0,1,23.076,9.139l9.026-9.023a44.63,44.63,0,0,0-32.1-12.91c-25.817,0-47.523,21.02-47.523,46.837s21.706,46.837,47.523,46.837c13.936,0,24.447-4.57,32.671-13.137,8.453-8.456,11.081-20.334,11.081-29.93a41.57,41.57,0,0,0-.686-8ZM550.4,300.247c-2.512-6.741-10.166-19.192-25.817-19.192-15.535,0-28.445,12.224-28.445,30.157,0,16.907,12.8,30.16,29.93,30.16A29.993,29.993,0,0,0,551.2,328.006l-10.279-6.854c-3.427,5.026-8.111,8.34-14.852,8.34s-11.538-3.084-14.622-9.139l40.325-16.677ZM509.277,310.3c-.343-11.651,9.023-17.593,15.762-17.593,5.256,0,9.712,2.628,11.2,6.4ZM476.49,339.544h13.253V250.9H476.49Zm-21.7-51.75h-.456c-2.971-3.541-8.683-6.739-15.88-6.739-15.078,0-28.9,13.25-28.9,30.271,0,16.909,13.823,30.046,28.9,30.046,7.2,0,12.91-3.2,15.88-6.855h.456v4.34c0,11.538-6.169,17.706-16.107,17.706-8.11,0-13.137-5.826-15.195-10.738l-11.538,4.8a28.742,28.742,0,0,0,26.732,17.82c15.535,0,28.672-9.139,28.672-31.415V282.881H454.786Zm-15.194,41.7c-9.137,0-16.791-7.654-16.791-18.165,0-10.622,7.654-18.39,16.791-18.39,9.026,0,16.107,7.768,16.107,18.39C455.7,321.837,448.618,329.491,439.592,329.491ZM612.471,250.9h-31.7v88.645H594V305.959h18.473c14.667,0,29.08-10.617,29.08-27.532S627.139,250.9,612.471,250.9Zm.343,42.724H594V263.235h18.816a15.2,15.2,0,1,1,0,30.387Zm81.768-12.731c-9.581,0-19.5,4.219-23.608,13.57l11.747,4.905c2.509-4.905,7.185-6.5,12.088-6.5,6.842,0,13.8,4.106,13.913,11.4v.913a29.254,29.254,0,0,0-13.8-3.422c-12.657,0-25.544,6.958-25.544,19.958,0,11.861,10.378,19.5,22.011,19.5,8.895,0,13.8-3.992,16.877-8.668h.457v6.842H721.5V305.412C721.5,289.673,709.749,280.891,694.582,280.891Zm-1.6,48.582c-4.335,0-10.378-2.166-10.378-7.528,0-6.842,7.525-9.465,14.027-9.465a23.574,23.574,0,0,1,12.088,2.966A16.037,16.037,0,0,1,692.986,329.474Zm75.039-46.643-15.169,38.431H752.4l-15.737-38.431H722.409l23.605,53.714-13.457,29.88h13.8l36.379-83.594ZM648.85,339.544h13.23V250.9H648.85Z" transform="translate(109.407 -126.82)" fill="#fff"/>
  <g id="Group_2484" data-name="Group 2484" transform="translate(70.713 50.631)">
    <path id="Path_1112" data-name="Path 1112" d="M97.534,221.271c-2.06,2.184-3.281,5.571-3.281,9.961v156.82c0,4.393,1.221,7.78,3.281,9.962l.525.512,87.848-87.846v-2.073L98.059,220.757Z" transform="translate(-94.253 -218.453)" fill="url(#linear-gradient)"/>
    <path id="Path_1113" data-name="Path 1113" d="M159.875,304.635,130.6,275.34v-2.073l29.287-29.289.661.378,34.694,19.711c9.909,5.631,9.909,14.844,0,20.478l-34.694,19.711Z" transform="translate(-38.942 -183.113)" fill="url(#linear-gradient-2)"/>
    <path id="Path_1114" data-name="Path 1114" d="M213.874,285.953,183.927,256l-88.373,88.37c3.268,3.458,8.66,3.886,14.736.436l103.585-58.856" transform="translate(-92.273 -164.812)" fill="url(#linear-gradient-3)"/>
    <path id="Path_1115" data-name="Path 1115" d="M213.874,281.082,110.29,222.228c-6.075-3.452-11.467-3.024-14.736.434l88.373,88.373Z" transform="translate(-92.273 -219.843)" fill="url(#linear-gradient-4)"/>
    <g id="Group_2483" data-name="Group 2483" transform="translate(0 120.481)">
      <path id="Path_1116" data-name="Path 1116" d="M213.214,267.617,110.29,326.1c-5.758,3.271-10.9,3.054-14.206.076h0l-.53.53h0l.525.509.005,0c3.3,2.976,8.448,3.2,14.206-.076l103.585-58.857Z" transform="translate(-92.273 -267.617)" opacity="0.2" style="isolation: isolate"/>
      <path id="Path_1117" data-name="Path 1117" d="M97.534,296.647c-2.06-2.184-3.281-5.573-3.281-9.962v1.034c0,4.391,1.221,7.78,3.281,9.964l.53-.53Z" transform="translate(-94.253 -238.597)" opacity="0.12" style="isolation: isolate"/>
    </g>
    <path id="Path_1118" data-name="Path 1118" d="M177.564,265.2l-35.355,20.089.661.661,34.694-19.714C182.517,263.423,185,259.714,185,256h0C184.58,259.358,182.058,262.649,177.564,265.2Z" transform="translate(-21.268 -164.81)" opacity="0.12" style="isolation: isolate"/>
    <path id="Path_1119" data-name="Path 1119" d="M112.27,223.267l138.279,78.565c4.494,2.552,7.016,5.841,7.432,9.2h0c.005-3.71-2.477-7.424-7.432-10.239L112.27,222.231c-9.911-5.631-18.017-.953-18.017,10.4v1.034C94.253,222.314,102.358,217.636,112.27,223.267Z" transform="translate(-94.253 -219.843)" fill="#fff" opacity="0.25" style="isolation: isolate"/>
  </g>
</svg>
