<svg xmlns="http://www.w3.org/2000/svg" width="625.606" height="422.927" viewBox="0 0 625.606 422.927">
  <g id="Group_2519" data-name="Group 2519" transform="translate(-3625.934 -2885.412)">
    <path id="Path_2397" data-name="Path 2397" d="M3786.375,2952.836h333.269a21.941,21.941,0,0,1,21.77,21.988v180.915a21.959,21.959,0,0,1-21.77,21.989H3786.375a21.959,21.959,0,0,1-21.77-21.989V2974.824a21.94,21.94,0,0,1,21.77-21.988Z" fill="#e8e8e8" fill-rule="evenodd"/>
    <path id="Path_2398" data-name="Path 2398" d="M3964.759,3062.061a26.36,26.36,0,0,0-7.994-8.074,64.224,64.224,0,0,0-9.212-4.037,52.957,52.957,0,0,1-7.6-2,38.123,38.123,0,0,1-6.01-2.032,21.71,21.71,0,0,1-3.2-2.033,4,4,0,0,1-1.587-2c-.4-.4-.794-1.632-.794-4.438a11.789,11.789,0,0,1,.794-3.636,6.432,6.432,0,0,1,1.587-2.835,9.063,9.063,0,0,1,3.2-2.032c2.807-1.2,8.419-1.2,10.8,0a7.084,7.084,0,0,1,2.807,2.032,9.07,9.07,0,0,1,2.012,3.236,9,9,0,0,0,10.8,5.64,9.41,9.41,0,0,0,5.188-4.438,9.144,9.144,0,0,0,.4-6.47,26.593,26.593,0,0,0-5.188-9.276,29.232,29.232,0,0,0-8.816-6.471c-1.19-.4-2.381-.8-3.6-1.2a8.424,8.424,0,0,0-16.781,0c-1.219.4-2.409.8-3.6,1.2a33.879,33.879,0,0,0-8.816,6.07,23,23,0,0,0-5.187,8.474,27.06,27.06,0,0,0-1.616,9.706c0,4.438.4,8.475,2.013,11.71a24.456,24.456,0,0,0,6.009,8.074,25.831,25.831,0,0,0,7.994,4.838,57.905,57.905,0,0,0,7.994,2.834c2.409.8,4.79,1.232,7.2,2.033a13.13,13.13,0,0,1,4.79,2,9.194,9.194,0,0,1,2.807,2.835,11.774,11.774,0,0,1,.793,4.838,17.625,17.625,0,0,1-.793,4.467,8.408,8.408,0,0,1-1.588,3.235,7.431,7.431,0,0,1-2.806,2,21.036,21.036,0,0,1-10.006,0,8.735,8.735,0,0,1-3.2-2,15.4,15.4,0,0,1-2.807-4.066,8.514,8.514,0,0,0-11.2-4.437,8.7,8.7,0,0,0-4.393,4.867,9.007,9.007,0,0,0,0,6.442,28.4,28.4,0,0,0,6.8,9.705,29.092,29.092,0,0,0,9.609,5.669h.4a8.409,8.409,0,0,0,8.391,8.074,7.724,7.724,0,0,0,7.993-7.673c1.616-.4,2.807-.83,4-1.231a25.561,25.561,0,0,0,9.213-6.442,23.212,23.212,0,0,0,5.187-9.305,29.225,29.225,0,0,0,1.616-10.106,25.277,25.277,0,0,0-3.6-13.743Z" fill="#60c49c"/>
    <path id="Path_2399" data-name="Path 2399" d="M3761.77,2929.932h357.165a27.559,27.559,0,0,1,27.355,27.6v92.189a5.563,5.563,0,0,1-5.528,5.583h-.482a5.539,5.539,0,0,1-5.5-5.583v-90.557a16.949,16.949,0,0,0-16.809-16.978H3762.734a16.925,16.925,0,0,0-16.781,16.978v196.518a16.925,16.925,0,0,0,16.781,16.978h355.238a16.949,16.949,0,0,0,16.809-16.978v-7.759a5.538,5.538,0,0,1,5.5-5.582h.482a5.562,5.562,0,0,1,5.528,5.582v9.42a27.558,27.558,0,0,1-27.355,27.6H3761.77a27.551,27.551,0,0,1-27.326-27.6V2957.532a27.552,27.552,0,0,1,27.326-27.6Zm373.011,196.633v-37.076a5.557,5.557,0,0,1,5.5-5.583h.482a5.581,5.581,0,0,1,5.528,5.583v37.076a5.563,5.563,0,0,1-5.528,5.583h-.482a5.539,5.539,0,0,1-5.5-5.583Z" fill="#419dd0" fill-rule="evenodd"/>
    <path id="Path_2400" data-name="Path 2400" d="M4134.781,3005.2h-.057c-34.469,0-62.39-28.2-62.39-63.015h12.926c0,27.6,22.138,49.96,49.464,49.96h.057Z" fill="#419dd0" fill-rule="evenodd"/>
    <path id="Path_2401" data-name="Path 2401" d="M4134.724,3109.616h-.056c-34.441,0-62.391,28.2-62.391,62.987H4085.2c0-27.571,22.139-49.96,49.465-49.96h.056Z" fill="#60c49c" fill-rule="evenodd"/>
    <path id="Path_2402" data-name="Path 2402" d="M3745.953,3005.144h.056c34.441,0,62.363-28.23,62.363-63.015h-12.926c0,27.6-22.139,49.959-49.437,49.959h-.056Z" fill="#60c49c" fill-rule="evenodd"/>
    <path id="Path_2403" data-name="Path 2403" d="M3745.9,3109.673h.057c34.441,0,62.362,28.2,62.362,62.987h-12.926c0-27.571-22.139-49.931-49.436-49.931h-.057Z" fill="#60c49c" fill-rule="evenodd"/>
    <path id="Path_2404" data-name="Path 2404" d="M3686.992,3054.76c33.619,0,61.03-27.685,61.03-61.669,0-33.956-27.411-61.642-61.03-61.642s-61.058,27.686-61.058,61.642c0,33.984,27.439,61.669,61.058,61.669Z" fill="#f8e390" fill-rule="evenodd"/>
    <path id="Path_2405" data-name="Path 2405" d="M3686.964,3028.478a35.346,35.346,0,1,0-35.008-35.359,35.237,35.237,0,0,0,35.008,35.359Z" fill="#fff2bf" fill-rule="evenodd"/>
    <path id="Path_2406" data-name="Path 2406" d="M3759.984,3008.723c33.619,0,61.03-27.686,61.03-61.641s-27.411-61.67-61.03-61.67c-33.647,0-61.058,27.714-61.058,61.67s27.411,61.641,61.058,61.641Z" fill="#ffcb63" fill-rule="evenodd"/>
    <path id="Path_2407" data-name="Path 2407" d="M3759.956,2982.44a35.346,35.346,0,1,0-35.008-35.358,35.236,35.236,0,0,0,35.008,35.358Z" fill="#f8e390" fill-rule="evenodd"/>
    <path id="Path_2408" data-name="Path 2408" d="M4108.787,3123.5v12.311a21.776,21.776,0,0,1,4.848,13.742v37.077a21.86,21.86,0,0,0,0,21.329v9.42c0,24.049-19.418,43.661-43.229,43.661H3713.241c-23.811,0-43.257-19.612-43.257-43.661V3017.57c0-24.05,19.446-43.662,43.257-43.662h357.165c23.811,0,43.229,19.612,43.229,43.662v92.218a21.638,21.638,0,0,1-4.848,13.714Z" fill="#fefefe" fill-rule="evenodd"/>
    <path id="Path_2409" data-name="Path 2409" d="M3737.846,3012.874h333.241a21.965,21.965,0,0,1,21.8,21.988v180.915a21.946,21.946,0,0,1-21.8,21.988H3737.846a21.94,21.94,0,0,1-21.771-21.988V3034.862a21.959,21.959,0,0,1,21.771-21.988Z" fill="#e8e8e8" fill-rule="evenodd"/>
    <path id="Path_2410" data-name="Path 2410" d="M3916.23,3122.127a25.546,25.546,0,0,0-8.022-8.073,59.507,59.507,0,0,0-9.184-4.037,57.418,57.418,0,0,1-7.6-2.033,35.221,35.221,0,0,1-6.01-2,25.362,25.362,0,0,1-3.2-2.033,3.944,3.944,0,0,1-1.587-2.033c-.4-.4-.794-1.6-.794-4.437a11.966,11.966,0,0,1,.794-3.636,6.751,6.751,0,0,1,1.587-2.835,8.764,8.764,0,0,1,3.2-2c2.807-1.2,8.419-1.2,10.8,0a7.231,7.231,0,0,1,2.807,2,9.121,9.121,0,0,1,1.984,3.236,9.058,9.058,0,0,0,10.828,5.668,9.518,9.518,0,0,0,5.188-4.437,9.148,9.148,0,0,0,.4-6.471,26.712,26.712,0,0,0-5.187-9.3,30.227,30.227,0,0,0-8.816-6.47c-1.19-.4-2.409-.8-3.6-1.2a8.439,8.439,0,0,0-16.809,0c-1.191.4-2.381.8-3.6,1.2a34.955,34.955,0,0,0-8.788,6.069,22.963,22.963,0,0,0-5.187,8.5,26.8,26.8,0,0,0-1.616,9.677c0,4.437.4,8.5,2.013,11.71a25.207,25.207,0,0,0,5.981,8.1,26.861,26.861,0,0,0,8.022,4.838,61.921,61.921,0,0,0,7.994,2.835c2.381.8,4.79,1.2,7.2,2a13.321,13.321,0,0,1,4.79,2.033,9.179,9.179,0,0,1,2.807,2.834,11.7,11.7,0,0,1,.793,4.839,17.441,17.441,0,0,1-.793,4.437,7.714,7.714,0,0,1-1.616,3.236,7.49,7.49,0,0,1-2.778,2.032,21.035,21.035,0,0,1-10.006,0,9.2,9.2,0,0,1-3.2-2.032,14.658,14.658,0,0,1-2.806-4.037,8.491,8.491,0,0,0-11.2-4.438,8.649,8.649,0,0,0-4.393,4.839,9.085,9.085,0,0,0,0,6.47,27.65,27.65,0,0,0,6.8,9.677,28.491,28.491,0,0,0,9.581,5.669h.425a8.409,8.409,0,0,0,8.39,8.074,7.725,7.725,0,0,0,7.994-7.673c1.616-.4,2.807-.8,4-1.2a25.637,25.637,0,0,0,9.213-6.47,23.554,23.554,0,0,0,5.187-9.3,28.968,28.968,0,0,0,1.616-10.078,25.211,25.211,0,0,0-3.6-13.743Z" fill="#419dd0"/>
    <path id="Path_2411" data-name="Path 2411" d="M3713.241,2989.97h357.165a27.551,27.551,0,0,1,27.326,27.6v92.218a5.557,5.557,0,0,1-5.5,5.583h-.482a5.581,5.581,0,0,1-5.527-5.583V3019.2a16.9,16.9,0,0,0-16.782-16.949H3714.205a16.9,16.9,0,0,0-16.782,16.949v196.548a16.927,16.927,0,0,0,16.782,16.978h355.237a16.927,16.927,0,0,0,16.782-16.978v-7.788a5.581,5.581,0,0,1,5.527-5.583h.482a5.557,5.557,0,0,1,5.5,5.583v9.42a27.551,27.551,0,0,1-27.326,27.6H3713.241a27.533,27.533,0,0,1-27.326-27.6V3017.57a27.533,27.533,0,0,1,27.326-27.6Zm372.983,196.662v-37.077a5.562,5.562,0,0,1,5.527-5.583h.482a5.538,5.538,0,0,1,5.5,5.583v37.077a5.557,5.557,0,0,1-5.5,5.583h-.482a5.581,5.581,0,0,1-5.527-5.583Z" fill="#419dd0" fill-rule="evenodd"/>
    <path id="Path_2412" data-name="Path 2412" d="M4086.224,3065.239h-.029c-34.469,0-62.39-28.2-62.39-62.987h12.926c0,27.571,22.138,49.932,49.464,49.932h.029Z" fill="#419dd0" fill-rule="evenodd"/>
    <path id="Path_2413" data-name="Path 2413" d="M4086.167,3169.654h-.028c-34.47,0-62.391,28.2-62.391,63.015h12.926c0-27.6,22.139-49.96,49.465-49.96h.028Z" fill="#60c49c" fill-rule="evenodd"/>
    <path id="Path_2414" data-name="Path 2414" d="M3697.423,3065.182h.029c34.469,0,62.39-28.2,62.39-62.987h-12.926c0,27.571-22.138,49.931-49.464,49.931h-.029Z" fill="#419dd0" fill-rule="evenodd"/>
    <path id="Path_2415" data-name="Path 2415" d="M3697.367,3169.711h.028c34.469,0,62.391,28.2,62.391,63.016H3746.86c0-27.6-22.139-49.96-49.465-49.96h-.028Z" fill="#419dd0" fill-rule="evenodd"/>
    <path id="Path_2416" data-name="Path 2416" d="M4144.079,3104.463h91.842a10.736,10.736,0,0,1,10.658,10.765v155.92a10.736,10.736,0,0,1-10.658,10.765h-91.842a10.736,10.736,0,0,1-10.659-10.765v-155.92a10.736,10.736,0,0,1,10.659-10.765Z" fill="#e8e8e8" fill-rule="evenodd"/>
    <path id="Path_2417" data-name="Path 2417" d="M4131.805,3086.626h99.637c11.056,0,20.1,8.016,20.1,17.837v165.769c0,9.792-9.042,17.837-20.1,17.837h-9.269a6.869,6.869,0,0,1-6.831-6.9V3255a2.133,2.133,0,0,0-2.126-2.147h-63.185A2.134,2.134,0,0,0,4147.9,3255v26.168a6.863,6.863,0,0,1-6.8,6.9h-9.3c-11.055,0-20.1-8.045-20.1-17.837V3104.463c0-9.821,9.043-17.837,20.1-17.837Zm87.222,156.837H4144.22a5.362,5.362,0,0,0-5.3,5.382v22.332a6.858,6.858,0,0,1-6.8,6.871h-.311c-4.848,0-8.816-3.521-8.816-7.816V3104.463c0-4.295,3.968-7.817,8.816-7.817h99.637c4.848,0,8.816,3.522,8.816,7.817v165.769c0,4.3-3.968,7.816-8.816,7.816h-.283a6.864,6.864,0,0,1-6.832-6.871v-22.332a5.362,5.362,0,0,0-5.3-5.382Z" fill="#575757" fill-rule="evenodd"/>
    <path id="Path_2418" data-name="Path 2418" d="M4141.5,3110.046h13.238a2.6,2.6,0,0,1,2.579,2.6v12.626a2.6,2.6,0,0,1-2.579,2.6H4141.5a2.6,2.6,0,0,1-2.579-2.6v-12.626a2.6,2.6,0,0,1,2.579-2.6Z" fill="#ffcb63" fill-rule="evenodd"/>
    <path id="Path_2419" data-name="Path 2419" d="M4175,3110.046h13.237a2.6,2.6,0,0,1,2.58,2.6v12.626a2.6,2.6,0,0,1-2.58,2.6H4175a2.6,2.6,0,0,1-2.58-2.6v-12.626a2.6,2.6,0,0,1,2.58-2.6Z" fill="#ffcb63" fill-rule="evenodd"/>
    <path id="Path_2420" data-name="Path 2420" d="M4208.51,3110.046h13.238a2.6,2.6,0,0,1,2.579,2.6v12.626a2.6,2.6,0,0,1-2.579,2.6H4208.51a2.6,2.6,0,0,1-2.579-2.6v-12.626a2.6,2.6,0,0,1,2.579-2.6Z" fill="#ffcb63" fill-rule="evenodd"/>
    <path id="Path_2421" data-name="Path 2421" d="M4141.5,3142.369h13.266a2.553,2.553,0,0,1,2.551,2.577V3157.6a2.577,2.577,0,0,1-2.551,2.6H4141.5a2.6,2.6,0,0,1-2.579-2.6v-12.655a2.577,2.577,0,0,1,2.579-2.577Z" fill="#ffcb63" fill-rule="evenodd"/>
    <path id="Path_2422" data-name="Path 2422" d="M4175,3142.369h13.266a2.577,2.577,0,0,1,2.579,2.577V3157.6a2.6,2.6,0,0,1-2.579,2.6H4175a2.6,2.6,0,0,1-2.58-2.6v-12.655a2.577,2.577,0,0,1,2.58-2.577Z" fill="#ffcb63" fill-rule="evenodd"/>
    <path id="Path_2423" data-name="Path 2423" d="M4208.51,3142.369h13.266a2.577,2.577,0,0,1,2.58,2.577V3157.6a2.6,2.6,0,0,1-2.58,2.6H4208.51a2.578,2.578,0,0,1-2.551-2.6v-12.655a2.553,2.553,0,0,1,2.551-2.577Z" fill="#ffcb63" fill-rule="evenodd"/>
    <path id="Path_2424" data-name="Path 2424" d="M4141.528,3174.664h13.237a2.6,2.6,0,0,1,2.58,2.606v12.654a2.6,2.6,0,0,1-2.58,2.606h-13.237a2.6,2.6,0,0,1-2.58-2.606V3177.27a2.6,2.6,0,0,1,2.58-2.606Z" fill="#ffcb63" fill-rule="evenodd"/>
    <path id="Path_2425" data-name="Path 2425" d="M4175.033,3174.664h13.238a2.6,2.6,0,0,1,2.579,2.606v12.654a2.6,2.6,0,0,1-2.579,2.606h-13.238a2.6,2.6,0,0,1-2.58-2.606V3177.27a2.6,2.6,0,0,1,2.58-2.606Z" fill="#ffcb63" fill-rule="evenodd"/>
    <path id="Path_2426" data-name="Path 2426" d="M4208.538,3174.664h13.238a2.6,2.6,0,0,1,2.58,2.606v12.654a2.6,2.6,0,0,1-2.58,2.606h-13.238a2.6,2.6,0,0,1-2.579-2.606V3177.27a2.6,2.6,0,0,1,2.579-2.606Z" fill="#ffcb63" fill-rule="evenodd"/>
    <path id="Path_2427" data-name="Path 2427" d="M4141.528,3206.988h13.237a2.6,2.6,0,0,1,2.58,2.6v12.626a2.6,2.6,0,0,1-2.58,2.606h-13.237a2.6,2.6,0,0,1-2.58-2.606v-12.626a2.6,2.6,0,0,1,2.58-2.6Z" fill="#ffcb63" fill-rule="evenodd"/>
    <path id="Path_2428" data-name="Path 2428" d="M4175.033,3206.988h13.238a2.6,2.6,0,0,1,2.579,2.6v12.626a2.6,2.6,0,0,1-2.579,2.606h-13.238a2.6,2.6,0,0,1-2.58-2.606v-12.626a2.6,2.6,0,0,1,2.58-2.6Z" fill="#ffcb63" fill-rule="evenodd"/>
    <path id="Path_2429" data-name="Path 2429" d="M4208.538,3206.988h13.238a2.6,2.6,0,0,1,2.58,2.6v12.626a2.6,2.6,0,0,1-2.58,2.606h-13.238a2.6,2.6,0,0,1-2.579-2.606v-12.626a2.6,2.6,0,0,1,2.579-2.6Z" fill="#ffcb63" fill-rule="evenodd"/>
    <path id="Path_2430" data-name="Path 2430" d="M4088.888,3301.153h-59.329a25.792,25.792,0,0,1-17.83,7.186h-10.885c-21.685,0-41.471-16.376-41.471-39.023V3075.088c0-22.647,19.786-39.023,41.471-39.023H4117.6c21.685,0,41.471,16.376,41.471,39.023v194.228c0,22.647-19.786,39.023-41.471,39.023h-10.885a25.792,25.792,0,0,1-17.83-7.186Z" fill="#fefefe" fill-rule="evenodd"/>
    <path id="Path_2431" data-name="Path 2431" d="M4015.216,3075.088h107.631a12.6,12.6,0,0,1,12.5,12.626V3270.4a12.6,12.6,0,0,1-12.5,12.626H4015.216a12.584,12.584,0,0,1-12.5-12.626v-182.69a12.584,12.584,0,0,1,12.5-12.626Z" fill="#e8e8e8" fill-rule="evenodd"/>
    <path id="Path_2432" data-name="Path 2432" d="M4000.844,3054.159H4117.6c12.954,0,23.556,9.419,23.556,20.929v194.228c0,11.509-10.6,20.929-23.556,20.929h-10.885a8.037,8.037,0,0,1-7.965-8.074v-30.692a2.529,2.529,0,0,0-2.5-2.519h-74.069a2.529,2.529,0,0,0-2.495,2.519v30.692a8.037,8.037,0,0,1-7.965,8.074h-10.885c-12.954,0-23.556-9.42-23.556-20.929V3075.088c0-11.51,10.6-20.929,23.556-20.929Zm102.189,183.835h-87.647a6.281,6.281,0,0,0-6.208,6.3v26.14a8.061,8.061,0,0,1-7.994,8.073h-.34c-5.7,0-10.346-4.122-10.346-9.19V3075.088c0-5.068,4.648-9.19,10.346-9.19H4117.6c5.669,0,10.318,4.122,10.318,9.19v194.228c0,5.068-4.649,9.19-10.318,9.19h-.34a8.061,8.061,0,0,1-7.994-8.073v-26.14a6.287,6.287,0,0,0-6.236-6.3Z" fill="#575757" fill-rule="evenodd"/>
    <path id="Path_2433" data-name="Path 2433" d="M4012.183,3081.616h15.533a3.039,3.039,0,0,1,3,3.034v14.831a3.04,3.04,0,0,1-3,3.035h-15.533a3.04,3.04,0,0,1-3.005-3.035V3084.65a3.039,3.039,0,0,1,3.005-3.034Z" fill="#419dd0" fill-rule="evenodd"/>
    <path id="Path_2434" data-name="Path 2434" d="M4051.471,3081.616h15.505a3.045,3.045,0,0,1,3.033,3.034v14.831a3.046,3.046,0,0,1-3.033,3.035h-15.505a3.046,3.046,0,0,1-3.033-3.035V3084.65a3.045,3.045,0,0,1,3.033-3.034Z" fill="#419dd0" fill-rule="evenodd"/>
    <path id="Path_2435" data-name="Path 2435" d="M4090.731,3081.616h15.533a3.039,3.039,0,0,1,3,3.034v14.831a3.04,3.04,0,0,1-3,3.035h-15.533a3.046,3.046,0,0,1-3.033-3.035V3084.65a3.045,3.045,0,0,1,3.033-3.034Z" fill="#419dd0" fill-rule="evenodd"/>
    <path id="Path_2436" data-name="Path 2436" d="M4012.211,3119.494h15.505a3.046,3.046,0,0,1,3.034,3.034v14.8a3.053,3.053,0,0,1-3.034,3.064h-15.505a3.052,3.052,0,0,1-3.033-3.064v-14.8a3.045,3.045,0,0,1,3.033-3.034Z" fill="#419dd0" fill-rule="evenodd"/>
    <path id="Path_2437" data-name="Path 2437" d="M4051.471,3119.494H4067a3.039,3.039,0,0,1,3,3.034v14.8a3.046,3.046,0,0,1-3,3.064h-15.534a3.052,3.052,0,0,1-3.033-3.064v-14.8a3.045,3.045,0,0,1,3.033-3.034Z" fill="#419dd0" fill-rule="evenodd"/>
    <path id="Path_2438" data-name="Path 2438" d="M4090.731,3119.494h15.533a3.021,3.021,0,0,1,3,3.034v14.8a3.028,3.028,0,0,1-3,3.064h-15.533a3.047,3.047,0,0,1-3-3.064v-14.8a3.04,3.04,0,0,1,3-3.034Z" fill="#419dd0" fill-rule="evenodd"/>
    <path id="Path_2439" data-name="Path 2439" d="M4012.211,3157.371h15.534a3.022,3.022,0,0,1,3,3.035v14.8a3.047,3.047,0,0,1-3,3.064h-15.534a3.052,3.052,0,0,1-3.033-3.064v-14.8a3.027,3.027,0,0,1,3.033-3.035Z" fill="#419dd0" fill-rule="evenodd"/>
    <path id="Path_2440" data-name="Path 2440" d="M4051.471,3157.371H4067a3.028,3.028,0,0,1,3.033,3.035v14.8a3.053,3.053,0,0,1-3.033,3.064h-15.534a3.047,3.047,0,0,1-3-3.064v-14.8a3.022,3.022,0,0,1,3-3.035Z" fill="#419dd0" fill-rule="evenodd"/>
    <path id="Path_2441" data-name="Path 2441" d="M4090.759,3157.371h15.505a3.028,3.028,0,0,1,3.034,3.035v14.8a3.053,3.053,0,0,1-3.034,3.064h-15.505a3.053,3.053,0,0,1-3.033-3.064v-14.8a3.028,3.028,0,0,1,3.033-3.035Z" fill="#419dd0" fill-rule="evenodd"/>
    <path id="Path_2442" data-name="Path 2442" d="M4012.211,3195.221h15.534a3.052,3.052,0,0,1,3.033,3.063v14.8a3.053,3.053,0,0,1-3.033,3.064h-15.534a3.047,3.047,0,0,1-3-3.064v-14.8a3.046,3.046,0,0,1,3-3.063Z" fill="#419dd0" fill-rule="evenodd"/>
    <path id="Path_2443" data-name="Path 2443" d="M4051.5,3195.221H4067a3.052,3.052,0,0,1,3.033,3.063v14.8a3.053,3.053,0,0,1-3.033,3.064H4051.5a3.053,3.053,0,0,1-3.033-3.064v-14.8a3.052,3.052,0,0,1,3.033-3.063Z" fill="#419dd0" fill-rule="evenodd"/>
    <path id="Path_2444" data-name="Path 2444" d="M4090.759,3195.221h15.534a3.046,3.046,0,0,1,3,3.063v14.8a3.047,3.047,0,0,1-3,3.064h-15.534a3.047,3.047,0,0,1-3.005-3.064v-14.8a3.046,3.046,0,0,1,3.005-3.063Z" fill="#419dd0" fill-rule="evenodd"/>
  </g>
</svg>
