<svg xmlns="http://www.w3.org/2000/svg" width="564.463" height="415.654" viewBox="0 0 564.463 415.654">
  <g id="Group_2518" data-name="Group 2518" transform="translate(-2786.364 -2892.942)">
    <path id="Path_2373" data-name="Path 2373" d="M2946.8,2960.366h333.269a21.941,21.941,0,0,1,21.77,21.988v180.915a21.959,21.959,0,0,1-21.77,21.988H2946.8a21.959,21.959,0,0,1-21.771-21.988V2982.354a21.941,21.941,0,0,1,21.771-21.988Z" fill="#e8e8e8" fill-rule="evenodd"/>
    <path id="Path_2374" data-name="Path 2374" d="M3125.189,3069.591a26.359,26.359,0,0,0-7.994-8.074,64.239,64.239,0,0,0-9.212-4.037,53.085,53.085,0,0,1-7.6-2,38.029,38.029,0,0,1-6.01-2.033,21.607,21.607,0,0,1-3.2-2.032,3.993,3.993,0,0,1-1.587-2c-.4-.4-.794-1.631-.794-4.437a11.789,11.789,0,0,1,.794-3.636,6.421,6.421,0,0,1,1.587-2.835,9.048,9.048,0,0,1,3.2-2.032c2.807-1.2,8.419-1.2,10.8,0a7.075,7.075,0,0,1,2.807,2.032,9.063,9.063,0,0,1,2.012,3.236,9,9,0,0,0,10.8,5.64,9.41,9.41,0,0,0,5.188-4.438,9.137,9.137,0,0,0,.4-6.47,26.589,26.589,0,0,0-5.187-9.277,29.243,29.243,0,0,0-8.816-6.47c-1.19-.4-2.381-.8-3.6-1.2a8.424,8.424,0,0,0-16.781,0c-1.219.4-2.409.8-3.6,1.2a33.874,33.874,0,0,0-8.816,6.07,22.981,22.981,0,0,0-5.187,8.474,27.059,27.059,0,0,0-1.616,9.706c0,4.437.4,8.474,2.013,11.71a24.435,24.435,0,0,0,6.009,8.073,25.832,25.832,0,0,0,7.994,4.839,57.871,57.871,0,0,0,7.994,2.834c2.409.8,4.79,1.231,7.2,2.033a13.106,13.106,0,0,1,4.79,2,9.188,9.188,0,0,1,2.807,2.835,11.79,11.79,0,0,1,.793,4.838,17.66,17.66,0,0,1-.793,4.466,8.412,8.412,0,0,1-1.588,3.236,7.45,7.45,0,0,1-2.806,2,21.06,21.06,0,0,1-10.006,0,8.759,8.759,0,0,1-3.2-2,15.425,15.425,0,0,1-2.806-4.066,8.515,8.515,0,0,0-11.2-4.438,8.705,8.705,0,0,0-4.393,4.868,9.007,9.007,0,0,0,0,6.441,28.41,28.41,0,0,0,6.8,9.706,29.092,29.092,0,0,0,9.609,5.669h.4a8.409,8.409,0,0,0,8.391,8.074,7.725,7.725,0,0,0,7.993-7.673c1.616-.4,2.807-.831,4-1.231a25.576,25.576,0,0,0,9.213-6.442,23.218,23.218,0,0,0,5.187-9.305,29.226,29.226,0,0,0,1.616-10.107,25.274,25.274,0,0,0-3.6-13.742Z" fill="#60c49c"/>
    <path id="Path_2375" data-name="Path 2375" d="M2922.2,2937.462h357.165a27.558,27.558,0,0,1,27.355,27.6v92.19a5.563,5.563,0,0,1-5.528,5.583h-.482a5.539,5.539,0,0,1-5.5-5.583v-90.558a16.949,16.949,0,0,0-16.81-16.977H2923.164a16.925,16.925,0,0,0-16.781,16.977v196.519a16.925,16.925,0,0,0,16.781,16.978H3278.4a16.95,16.95,0,0,0,16.81-16.978v-7.759a5.539,5.539,0,0,1,5.5-5.583h.482a5.563,5.563,0,0,1,5.528,5.583v9.42a27.558,27.558,0,0,1-27.355,27.6H2922.2a27.551,27.551,0,0,1-27.326-27.6V2965.061a27.551,27.551,0,0,1,27.326-27.6Zm373.011,196.633v-37.076a5.557,5.557,0,0,1,5.5-5.583h.482a5.581,5.581,0,0,1,5.528,5.583v37.076a5.563,5.563,0,0,1-5.528,5.583h-.482a5.539,5.539,0,0,1-5.5-5.583Z" fill="#419dd0" fill-rule="evenodd"/>
    <path id="Path_2376" data-name="Path 2376" d="M3295.211,3012.731h-.057c-34.469,0-62.39-28.2-62.39-63.015h12.926c0,27.6,22.138,49.96,49.464,49.96h.057Z" fill="#419dd0" fill-rule="evenodd"/>
    <path id="Path_2377" data-name="Path 2377" d="M3295.154,3117.146h-.056c-34.441,0-62.391,28.2-62.391,62.987h12.926c0-27.571,22.139-49.96,49.465-49.96h.056Z" fill="#60c49c" fill-rule="evenodd"/>
    <path id="Path_2378" data-name="Path 2378" d="M2906.383,3012.674h.056c34.441,0,62.362-28.23,62.362-63.016h-12.926c0,27.6-22.138,49.96-49.436,49.96h-.056Z" fill="#60c49c" fill-rule="evenodd"/>
    <path id="Path_2379" data-name="Path 2379" d="M2906.326,3117.2h.057c34.44,0,62.362,28.2,62.362,62.987h-12.926c0-27.571-22.139-49.931-49.436-49.931h-.057Z" fill="#60c49c" fill-rule="evenodd"/>
    <path id="Path_2380" data-name="Path 2380" d="M2847.422,3062.29c33.619,0,61.03-27.685,61.03-61.67,0-33.955-27.411-61.641-61.03-61.641s-61.058,27.686-61.058,61.641c0,33.985,27.439,61.67,61.058,61.67Z" fill="#f8e390" fill-rule="evenodd"/>
    <path id="Path_2381" data-name="Path 2381" d="M2847.394,3036.007a35.346,35.346,0,1,0-35.008-35.358,35.236,35.236,0,0,0,35.008,35.358Z" fill="#fff2bf" fill-rule="evenodd"/>
    <path id="Path_2382" data-name="Path 2382" d="M2920.414,3016.253c33.619,0,61.03-27.686,61.03-61.642s-27.411-61.669-61.03-61.669c-33.647,0-61.058,27.714-61.058,61.669s27.411,61.642,61.058,61.642Z" fill="#ffcb63" fill-rule="evenodd"/>
    <path id="Path_2383" data-name="Path 2383" d="M2920.386,2989.97a35.346,35.346,0,1,0-35.008-35.359,35.236,35.236,0,0,0,35.008,35.359Z" fill="#f8e390" fill-rule="evenodd"/>
    <path id="Path_2384" data-name="Path 2384" d="M3269.217,3131.032v12.311a21.772,21.772,0,0,1,4.847,13.742v37.076a21.869,21.869,0,0,0,0,21.33v9.419c0,24.05-19.417,43.662-43.228,43.662H2873.671c-23.811,0-43.257-19.612-43.257-43.662V3025.1c0-24.049,19.446-43.661,43.257-43.661h357.165c23.811,0,43.228,19.612,43.228,43.661v92.219a21.638,21.638,0,0,1-4.847,13.714Z" fill="#fefefe" fill-rule="evenodd"/>
    <path id="Path_2385" data-name="Path 2385" d="M2898.275,3020.4h333.241a21.965,21.965,0,0,1,21.8,21.988v180.915a21.946,21.946,0,0,1-21.8,21.988H2898.275a21.94,21.94,0,0,1-21.77-21.988V3042.392a21.959,21.959,0,0,1,21.77-21.988Z" fill="#e8e8e8" fill-rule="evenodd"/>
    <path id="Path_2386" data-name="Path 2386" d="M3076.66,3129.657a25.541,25.541,0,0,0-8.022-8.073,59.443,59.443,0,0,0-9.185-4.037,57.455,57.455,0,0,1-7.6-2.033,35.314,35.314,0,0,1-6.01-2,25.362,25.362,0,0,1-3.2-2.033,3.941,3.941,0,0,1-1.587-2.033c-.4-.4-.794-1.6-.794-4.437a11.966,11.966,0,0,1,.794-3.636,6.74,6.74,0,0,1,1.587-2.835,8.751,8.751,0,0,1,3.2-2c2.806-1.2,8.419-1.2,10.8,0a7.21,7.21,0,0,1,2.806,2,9.105,9.105,0,0,1,1.985,3.235,9.058,9.058,0,0,0,10.828,5.669,9.515,9.515,0,0,0,5.187-4.438,9.141,9.141,0,0,0,.4-6.47,26.72,26.72,0,0,0-5.187-9.3,30.244,30.244,0,0,0-8.816-6.47c-1.19-.4-2.409-.8-3.6-1.2a8.439,8.439,0,0,0-16.809,0c-1.191.4-2.381.8-3.6,1.2a34.959,34.959,0,0,0-8.788,6.069,22.954,22.954,0,0,0-5.187,8.5,26.8,26.8,0,0,0-1.616,9.677c0,4.437.4,8.5,2.013,11.709a25.21,25.21,0,0,0,5.981,8.1,26.865,26.865,0,0,0,8.022,4.838,61.912,61.912,0,0,0,7.994,2.835c2.381.8,4.79,1.2,7.2,2a13.325,13.325,0,0,1,4.79,2.033,9.168,9.168,0,0,1,2.806,2.834,11.673,11.673,0,0,1,.794,4.839,17.4,17.4,0,0,1-.794,4.437,7.7,7.7,0,0,1-1.615,3.235,7.48,7.48,0,0,1-2.778,2.033,21.039,21.039,0,0,1-10.007,0,9.191,9.191,0,0,1-3.2-2.033,14.636,14.636,0,0,1-2.806-4.036,8.491,8.491,0,0,0-11.2-4.438,8.655,8.655,0,0,0-4.394,4.838,9.1,9.1,0,0,0,0,6.471,27.668,27.668,0,0,0,6.8,9.677,28.494,28.494,0,0,0,9.581,5.669h.425a8.408,8.408,0,0,0,8.39,8.073,7.724,7.724,0,0,0,7.994-7.672c1.616-.4,2.806-.8,4-1.2a25.635,25.635,0,0,0,9.213-6.47,23.566,23.566,0,0,0,5.187-9.3,28.968,28.968,0,0,0,1.616-10.078,25.209,25.209,0,0,0-3.6-13.743Z" fill="#419dd0"/>
    <path id="Path_2387" data-name="Path 2387" d="M2873.671,2997.5h357.165a27.551,27.551,0,0,1,27.326,27.6v92.219a5.557,5.557,0,0,1-5.5,5.583h-.482a5.581,5.581,0,0,1-5.528-5.583v-90.587a16.9,16.9,0,0,0-16.781-16.949H2874.634a16.9,16.9,0,0,0-16.781,16.949v196.548a16.926,16.926,0,0,0,16.781,16.977h355.238a16.925,16.925,0,0,0,16.781-16.977v-7.788a5.582,5.582,0,0,1,5.528-5.583h.482a5.557,5.557,0,0,1,5.5,5.583v9.419a27.552,27.552,0,0,1-27.326,27.6H2873.671a27.533,27.533,0,0,1-27.326-27.6V3025.1a27.533,27.533,0,0,1,27.326-27.6Zm372.982,196.661v-37.076a5.563,5.563,0,0,1,5.528-5.583h.482a5.539,5.539,0,0,1,5.5,5.583v37.076a5.556,5.556,0,0,1-5.5,5.583h-.482a5.581,5.581,0,0,1-5.528-5.583Z" fill="#419dd0" fill-rule="evenodd"/>
    <path id="Path_2388" data-name="Path 2388" d="M3246.653,3072.769h-.028c-34.469,0-62.39-28.2-62.39-62.987h12.926c0,27.571,22.138,49.931,49.464,49.931h.028Z" fill="#419dd0" fill-rule="evenodd"/>
    <path id="Path_2389" data-name="Path 2389" d="M3246.6,3177.184h-.029c-34.469,0-62.39,28.2-62.39,63.015H3197.1c0-27.6,22.138-49.96,49.464-49.96h.029Z" fill="#60c49c" fill-rule="evenodd"/>
    <path id="Path_2390" data-name="Path 2390" d="M2857.853,3072.712h.029c34.469,0,62.39-28.2,62.39-62.987h-12.926c0,27.571-22.138,49.931-49.464,49.931h-.029Z" fill="#419dd0" fill-rule="evenodd"/>
    <path id="Path_2391" data-name="Path 2391" d="M2857.8,3177.241h.028c34.469,0,62.391,28.2,62.391,63.015H2907.29c0-27.6-22.139-49.96-49.465-49.96h-.028Z" fill="#419dd0" fill-rule="evenodd"/>
    <path id="Path_2392" data-name="Path 2392" d="M3188.912,3214.689a80.233,80.233,0,0,1-31.465-63.731c0-.028.028-.086.028-.114a89.43,89.43,0,0,1-9.326-39.854c0-49.215,39.8-89.412,88.526-89.412a88.181,88.181,0,0,1,71.32,36.36,54.365,54.365,0,0,1,30.869,87.151,57.981,57.981,0,0,1,.312,5.869,54.056,54.056,0,0,1-43.427,53.167,77.55,77.55,0,0,1-11.31,10.564,125.934,125.934,0,0,1,60.888,54.226,26.286,26.286,0,0,1-4.11,31.15l-.255,8.532H3132.389l-.255-8.532a26.292,26.292,0,0,1-4.139-31.15,126,126,0,0,1,60.917-54.226Z" fill="#fefefe" fill-rule="evenodd"/>
    <path id="Path_2393" data-name="Path 2393" d="M3290.25,3150.958c0,29.89-24.009,54.112-53.575,54.112-29.593,0-53.574-24.222-53.574-54.112,0-29.861,23.981-54.082,53.574-54.082,29.566,0,53.575,24.221,53.575,54.082Z" fill="#fff"/>
    <path id="Path_2394" data-name="Path 2394" d="M3150.247,3281.77c17.235-30.348,49.38-50.819,86.428-50.819,37.021,0,69.166,20.471,86.4,50.819l-.227,7.988H3150.5Z" fill="#ffcb63"/>
    <path id="Path_2395" data-name="Path 2395" d="M3323.076,3288.842a6.745,6.745,0,0,1-6.038-3.55,91.947,91.947,0,0,0-160.725,0,7.066,7.066,0,0,1-9.552,2.6,7.238,7.238,0,0,1-2.552-9.648,105.841,105.841,0,0,1,184.933,0,7.221,7.221,0,0,1-2.58,9.648,6.674,6.674,0,0,1-3.486.945Z" fill="#419dd0"/>
    <path id="Path_2396" data-name="Path 2396" d="M3332.175,3110.99a35.09,35.09,0,0,0-34.951-35.3,69.661,69.661,0,0,0-60.549-35.272c-38.437,0-69.874,31.751-69.874,70.573a70.522,70.522,0,0,0,9.553,35.5c0,1.431-.255,3.063-.255,4.466,0,33.641,27.269,61.183,60.576,61.183a60.387,60.387,0,0,0,49.38-25.882,35.123,35.123,0,0,0,34.469-35.3,34.547,34.547,0,0,0-2.1-12,34.814,34.814,0,0,0,13.748-27.972Zm-47.764,9.878c-1.389,2.348-2.778,4.466-4.422,6.814a4.911,4.911,0,0,0-.709,4.7,45.823,45.823,0,0,1,3.742,21.187,47.044,47.044,0,0,1-44.249,44.463c-26.561,1.173-48.7-20.471-48.7-47.069a4.508,4.508,0,0,1,4.677-4.466h16.526a76.362,76.362,0,0,0,22.592-3.293c15.392-4.7,27.95-14.114,35.632-25.166.935-1.4,1.871-2.834,2.806-4.466a7.147,7.147,0,0,1,10.715-1.89,6.965,6.965,0,0,1,1.389,9.191Z" fill="#575757"/>
  </g>
</svg>
