<svg xmlns="http://www.w3.org/2000/svg" width="623.227" height="440.548" viewBox="0 0 623.227 440.548">
  <g id="Group_2517" data-name="Group 2517" transform="translate(-3611.661 -2397.257)">
    <g id="Group_2515" data-name="Group 2515">
      <path id="Path_2346" data-name="Path 2346" d="M3772.1,2464.681h333.27a21.941,21.941,0,0,1,21.77,21.988v180.915a21.96,21.96,0,0,1-21.77,21.989H3772.1a21.96,21.96,0,0,1-21.77-21.989V2486.669a21.941,21.941,0,0,1,21.77-21.988Z" fill="#e8e8e8" fill-rule="evenodd"/>
      <path id="Path_2347" data-name="Path 2347" d="M3950.487,2573.906a26.36,26.36,0,0,0-7.994-8.074,64.248,64.248,0,0,0-9.213-4.037,53.024,53.024,0,0,1-7.6-2,38.137,38.137,0,0,1-6.009-2.032,21.646,21.646,0,0,1-3.2-2.033,4,4,0,0,1-1.588-2c-.4-.4-.793-1.632-.793-4.438a11.818,11.818,0,0,1,.793-3.636,6.424,6.424,0,0,1,1.588-2.835,9.052,9.052,0,0,1,3.2-2.032c2.806-1.2,8.419-1.2,10.8,0a7.074,7.074,0,0,1,2.806,2.032,9.06,9.06,0,0,1,2.013,3.236,9,9,0,0,0,10.8,5.64,9.4,9.4,0,0,0,5.187-4.438,9.134,9.134,0,0,0,.4-6.47,26.578,26.578,0,0,0-5.187-9.276,29.245,29.245,0,0,0-8.816-6.471c-1.191-.4-2.381-.8-3.6-1.2a8.424,8.424,0,0,0-16.781,0c-1.219.4-2.41.8-3.6,1.2a33.859,33.859,0,0,0-8.816,6.07,22.979,22.979,0,0,0-5.187,8.474,27.06,27.06,0,0,0-1.616,9.706c0,4.438.4,8.475,2.013,11.71a24.428,24.428,0,0,0,6.009,8.073,25.794,25.794,0,0,0,7.994,4.839,57.893,57.893,0,0,0,7.993,2.834c2.41.8,4.791,1.232,7.2,2.033a13.133,13.133,0,0,1,4.791,2,9.176,9.176,0,0,1,2.806,2.835,11.765,11.765,0,0,1,.794,4.838,17.616,17.616,0,0,1-.794,4.467,8.409,8.409,0,0,1-1.587,3.235,7.451,7.451,0,0,1-2.806,2,21.04,21.04,0,0,1-10.007,0,8.767,8.767,0,0,1-3.2-2,15.425,15.425,0,0,1-2.806-4.066,8.515,8.515,0,0,0-11.2-4.437,8.707,8.707,0,0,0-4.394,4.867,9.019,9.019,0,0,0,0,6.442,28.427,28.427,0,0,0,6.8,9.705,29.107,29.107,0,0,0,9.61,5.669h.4a8.409,8.409,0,0,0,8.39,8.074,7.725,7.725,0,0,0,7.994-7.673c1.616-.4,2.806-.83,4-1.231a25.563,25.563,0,0,0,9.212-6.442,23.212,23.212,0,0,0,5.188-9.305,29.225,29.225,0,0,0,1.616-10.106,25.277,25.277,0,0,0-3.6-13.743Z" fill="#60c49c"/>
      <path id="Path_2348" data-name="Path 2348" d="M3747.5,2441.777h357.165a27.558,27.558,0,0,1,27.354,27.6v92.189a5.562,5.562,0,0,1-5.527,5.583h-.482a5.539,5.539,0,0,1-5.5-5.583v-90.557a16.95,16.95,0,0,0-16.81-16.978H3748.461a16.925,16.925,0,0,0-16.781,16.978v196.518a16.925,16.925,0,0,0,16.781,16.978H4103.7a16.949,16.949,0,0,0,16.81-16.978v-7.759a5.538,5.538,0,0,1,5.5-5.582h.482a5.561,5.561,0,0,1,5.527,5.582v9.42a27.557,27.557,0,0,1-27.354,27.6H3747.5a27.551,27.551,0,0,1-27.326-27.6V2469.377a27.552,27.552,0,0,1,27.326-27.6Zm373.011,196.633v-37.076a5.557,5.557,0,0,1,5.5-5.583h.482a5.58,5.58,0,0,1,5.527,5.583v37.076a5.562,5.562,0,0,1-5.527,5.583h-.482a5.539,5.539,0,0,1-5.5-5.583Z" fill="#419dd0" fill-rule="evenodd"/>
      <path id="Path_2349" data-name="Path 2349" d="M4120.509,2517.046h-.057c-34.469,0-62.391-28.2-62.391-63.015h12.926c0,27.6,22.139,49.96,49.465,49.96h.057Z" fill="#419dd0" fill-rule="evenodd"/>
      <path id="Path_2350" data-name="Path 2350" d="M4120.452,2621.461h-.057c-34.441,0-62.39,28.2-62.39,62.987h12.926c0-27.571,22.138-49.96,49.464-49.96h.057Z" fill="#419dd0" fill-rule="evenodd"/>
      <path id="Path_2351" data-name="Path 2351" d="M3731.68,2516.989h.057c34.441,0,62.362-28.23,62.362-63.015h-12.926c0,27.6-22.138,49.959-49.436,49.959h-.057Z" fill="#60c49c" fill-rule="evenodd"/>
      <path id="Path_2352" data-name="Path 2352" d="M3731.623,2621.518h.057c34.441,0,62.362,28.2,62.362,62.987h-12.926c0-27.571-22.138-49.931-49.436-49.931h-.057Z" fill="#60c49c" fill-rule="evenodd"/>
      <path id="Path_2353" data-name="Path 2353" d="M3672.72,2566.6c33.618,0,61.029-27.685,61.029-61.669,0-33.956-27.411-61.642-61.029-61.642s-61.059,27.686-61.059,61.642c0,33.984,27.44,61.669,61.059,61.669Z" fill="#f8e390" fill-rule="evenodd"/>
      <path id="Path_2354" data-name="Path 2354" d="M3672.691,2540.323a35.346,35.346,0,1,0-35.008-35.359,35.236,35.236,0,0,0,35.008,35.359Z" fill="#fff2bf" fill-rule="evenodd"/>
      <path id="Path_2355" data-name="Path 2355" d="M3745.712,2520.568c33.619,0,61.03-27.686,61.03-61.641s-27.411-61.67-61.03-61.67c-33.648,0-61.059,27.714-61.059,61.67s27.411,61.641,61.059,61.641Z" fill="#ffcb63" fill-rule="evenodd"/>
      <path id="Path_2356" data-name="Path 2356" d="M3745.683,2494.285a35.346,35.346,0,1,0-35.008-35.358,35.236,35.236,0,0,0,35.008,35.358Z" fill="#f8e390" fill-rule="evenodd"/>
      <path id="Path_2357" data-name="Path 2357" d="M4094.515,2635.347v12.311a21.774,21.774,0,0,1,4.847,13.742v37.077a21.86,21.86,0,0,0,0,21.329v9.42c0,24.049-19.417,43.661-43.228,43.661H3698.968c-23.811,0-43.256-19.612-43.256-43.661V2529.414c0-24.049,19.445-43.661,43.256-43.661h357.166c23.811,0,43.228,19.612,43.228,43.661v92.219a21.636,21.636,0,0,1-4.847,13.714Z" fill="#fefefe" fill-rule="evenodd"/>
      <path id="Path_2358" data-name="Path 2358" d="M3723.573,2524.719h333.241a21.965,21.965,0,0,1,21.8,21.988v180.915a21.946,21.946,0,0,1-21.8,21.988H3723.573a21.94,21.94,0,0,1-21.77-21.988V2546.707a21.959,21.959,0,0,1,21.77-21.988Z" fill="#e8e8e8" fill-rule="evenodd"/>
      <path id="Path_2359" data-name="Path 2359" d="M3901.957,2633.972a25.536,25.536,0,0,0-8.022-8.073,59.507,59.507,0,0,0-9.184-4.037,57.5,57.5,0,0,1-7.6-2.033,35.234,35.234,0,0,1-6.009-2,25.216,25.216,0,0,1-3.2-2.033,3.945,3.945,0,0,1-1.588-2.033c-.4-.4-.793-1.6-.793-4.437a11.964,11.964,0,0,1,.793-3.636,6.755,6.755,0,0,1,1.588-2.835,8.751,8.751,0,0,1,3.2-2c2.806-1.2,8.419-1.2,10.8,0a7.235,7.235,0,0,1,2.806,2,9.111,9.111,0,0,1,1.984,3.236,9.06,9.06,0,0,0,10.829,5.668,9.512,9.512,0,0,0,5.187-4.437,9.145,9.145,0,0,0,.4-6.471,26.714,26.714,0,0,0-5.188-9.3,30.226,30.226,0,0,0-8.815-6.47c-1.191-.4-2.41-.8-3.6-1.2a8.44,8.44,0,0,0-16.81,0c-1.19.4-2.381.8-3.6,1.2a34.916,34.916,0,0,0-8.787,6.07,22.93,22.93,0,0,0-5.187,8.5,26.8,26.8,0,0,0-1.616,9.677c0,4.437.4,8.5,2.012,11.71a25.225,25.225,0,0,0,5.981,8.1,26.867,26.867,0,0,0,8.023,4.838,61.9,61.9,0,0,0,7.993,2.835c2.381.8,4.791,1.2,7.2,2a13.334,13.334,0,0,1,4.791,2.033,9.19,9.19,0,0,1,2.806,2.834,11.674,11.674,0,0,1,.794,4.839,17.4,17.4,0,0,1-.794,4.437,7.717,7.717,0,0,1-1.616,3.236,7.477,7.477,0,0,1-2.778,2.032,21.036,21.036,0,0,1-10.006,0,9.2,9.2,0,0,1-3.2-2.032,14.614,14.614,0,0,1-2.806-4.037,8.491,8.491,0,0,0-11.2-4.438,8.654,8.654,0,0,0-4.394,4.839,9.083,9.083,0,0,0,0,6.47,27.66,27.66,0,0,0,6.8,9.677,28.5,28.5,0,0,0,9.581,5.669h.426a8.408,8.408,0,0,0,8.39,8.074,7.725,7.725,0,0,0,7.994-7.673c1.616-.4,2.806-.8,4-1.2a25.626,25.626,0,0,0,9.212-6.47,23.562,23.562,0,0,0,5.188-9.3,28.966,28.966,0,0,0,1.615-10.078,25.213,25.213,0,0,0-3.6-13.743Z" fill="#419dd0"/>
      <path id="Path_2360" data-name="Path 2360" d="M3698.968,2501.815h357.166a27.552,27.552,0,0,1,27.326,27.6v92.219a5.557,5.557,0,0,1-5.5,5.583h-.482a5.582,5.582,0,0,1-5.528-5.583v-90.587a16.9,16.9,0,0,0-16.781-16.949H3699.932a16.9,16.9,0,0,0-16.781,16.949v196.548a16.925,16.925,0,0,0,16.781,16.977H4055.17a16.925,16.925,0,0,0,16.781-16.977v-7.788a5.582,5.582,0,0,1,5.528-5.583h.482a5.557,5.557,0,0,1,5.5,5.583v9.42a27.552,27.552,0,0,1-27.326,27.6H3698.968a27.533,27.533,0,0,1-27.326-27.6V2529.414a27.533,27.533,0,0,1,27.326-27.6Zm372.983,196.662V2661.4a5.563,5.563,0,0,1,5.528-5.583h.482a5.539,5.539,0,0,1,5.5,5.583v37.077a5.557,5.557,0,0,1-5.5,5.583h-.482a5.582,5.582,0,0,1-5.528-5.583Z" fill="#419dd0" fill-rule="evenodd"/>
      <path id="Path_2361" data-name="Path 2361" d="M4071.951,2577.084h-.028c-34.47,0-62.391-28.2-62.391-62.987h12.926c0,27.571,22.139,49.932,49.465,49.932h.028Z" fill="#419dd0" fill-rule="evenodd"/>
      <path id="Path_2362" data-name="Path 2362" d="M4071.894,2681.5h-.028c-34.469,0-62.391,28.2-62.391,63.015H4022.4c0-27.6,22.139-49.96,49.465-49.96h.028Z" fill="#419dd0" fill-rule="evenodd"/>
      <path id="Path_2363" data-name="Path 2363" d="M3683.151,2577.027h.028c34.47,0,62.391-28.2,62.391-62.987h-12.926c0,27.571-22.139,49.931-49.465,49.931h-.028Z" fill="#419dd0" fill-rule="evenodd"/>
      <path id="Path_2364" data-name="Path 2364" d="M3683.094,2681.556h.029c34.469,0,62.39,28.2,62.39,63.015h-12.926c0-27.6-22.138-49.959-49.464-49.959h-.029Z" fill="#419dd0" fill-rule="evenodd"/>
    </g>
    <g id="Group_2516" data-name="Group 2516">
      <path id="Path_2365" data-name="Path 2365" d="M4219.4,2617.288a30.275,30.275,0,0,0,1.382-9.073v-16.461a53.281,53.281,0,0,0-53.221-53.22h-20.09a46.475,46.475,0,0,0-36.348-17.637H4073.5a45.969,45.969,0,0,0-36.56,17.977,30.75,30.75,0,0,0-4.593-.34h-15.285a53.281,53.281,0,0,0-53.221,53.22v192.83a53.281,53.281,0,0,0,53.221,53.221h162.259a41.458,41.458,0,0,0,41.46-40.776l2.335-70.058a29.4,29.4,0,0,0-9.387-22.974v-8.486A29.337,29.337,0,0,0,4234.888,2667v-23.516A29.4,29.4,0,0,0,4219.4,2617.288Z" fill="#fff"/>
      <g id="surface1">
        <path id="Path_2366" data-name="Path 2366" d="M4126.4,2568.239h41.153a23.585,23.585,0,0,1,23.516,23.515v192.831a23.585,23.585,0,0,1-23.516,23.515h-150.5a23.585,23.585,0,0,1-23.516-23.515V2591.754a23.585,23.585,0,0,1,23.516-23.515h15.285" fill="#fff"/>
        <path id="Path_2367" data-name="Path 2367" d="M4205.184,2674.06a6.929,6.929,0,0,1-7.055-7.055v-23.516a7.054,7.054,0,0,1,14.109,0V2667A6.928,6.928,0,0,1,4205.184,2674.06Z" fill="#419dd0"/>
        <path id="Path_2368" data-name="Path 2368" d="M4134.636,2768.123a6.4,6.4,0,0,1-4.937-2.117l-63.73-63.727-19.047,36.215a7.153,7.153,0,1,1-12.7-6.586l23.516-44.68a7.785,7.785,0,0,1,5.174-3.762,8.292,8.292,0,0,1,6.113,1.881l64.2,64.2,53.85-89.595a7.35,7.35,0,0,1-7.055-3.761,7.167,7.167,0,0,1,3.057-9.407l18.812-9.406a7.013,7.013,0,0,1,9.173,9.875l-70.548,117.579a6.968,6.968,0,0,1-5.174,3.293Z" fill="#419dd0"/>
        <path id="Path_2369" data-name="Path 2369" d="M4026.463,2768.123a6.4,6.4,0,0,1-4.937-2.117,6.761,6.761,0,0,1-2.118-4.937,6.4,6.4,0,0,1,2.118-4.938,7.249,7.249,0,0,1,9.874,0,6.76,6.76,0,0,1,2.118,4.938,7.237,7.237,0,0,1-7.055,7.054Z" fill="#419dd0"/>
        <path id="Path_2370" data-name="Path 2370" d="M4179.316,2815.155H4017.057a30.509,30.509,0,0,1-30.571-30.57V2591.754a30.509,30.509,0,0,1,30.571-30.57h15.285a7.054,7.054,0,1,1,0,14.109h-15.285a16.359,16.359,0,0,0-16.461,16.461v192.831a16.358,16.358,0,0,0,16.461,16.461h162.259a4.719,4.719,0,0,0,4.7-4.7l2.352-70.781a7.067,7.067,0,0,1,7.289-6.821,6.928,6.928,0,0,1,6.82,7.289l-2.351,70.548A18.819,18.819,0,0,1,4179.316,2815.155Z" fill="#444b54"/>
        <path id="Path_2371" data-name="Path 2371" d="M4111.12,2583.524H4073.5a16.461,16.461,0,1,1,0-32.922h37.625a16.461,16.461,0,0,1,0,32.922Z" fill="#fff"/>
        <path id="Path_2372" data-name="Path 2372" d="M4167.558,2561.184h-33.627a23.5,23.5,0,0,0-22.811-17.637H4073.5a23.516,23.516,0,1,0,0,47.032h37.625a23.78,23.78,0,0,0,22.106-15.286h34.332a16.359,16.359,0,0,1,16.461,16.461v16.462a7.055,7.055,0,0,0,14.11,0v-16.462A30.509,30.509,0,0,0,4167.558,2561.184Zm-56.438,15.285H4073.5a9.406,9.406,0,1,1,0-18.813h37.625a9.406,9.406,0,0,1,0,18.813Z" fill="#444b54"/>
      </g>
    </g>
  </g>
</svg>
