<svg xmlns="http://www.w3.org/2000/svg" width="637.911" height="454.913" viewBox="0 0 637.911 454.913">
  <g id="Group_2514" data-name="Group 2514" transform="translate(-2972.529 -2378.79)">
    <g id="Group_2512" data-name="Group 2512">
      <path id="Path_2311" data-name="Path 2311" d="M3132.97,2446.215h333.269a21.94,21.94,0,0,1,21.77,21.988v180.915a21.959,21.959,0,0,1-21.77,21.988H3132.97a21.959,21.959,0,0,1-21.77-21.988V2468.2a21.94,21.94,0,0,1,21.77-21.988Z" fill="#e8e8e8" fill-rule="evenodd"/>
      <path id="Path_2312" data-name="Path 2312" d="M3311.354,2555.439a26.356,26.356,0,0,0-7.993-8.073,64.054,64.054,0,0,0-9.213-4.037,53.282,53.282,0,0,1-7.6-2,38.084,38.084,0,0,1-6.009-2.033,21.7,21.7,0,0,1-3.2-2.033,4,4,0,0,1-1.587-2c-.4-.4-.794-1.632-.794-4.438a11.8,11.8,0,0,1,.794-3.636,6.429,6.429,0,0,1,1.587-2.834,9.059,9.059,0,0,1,3.2-2.033c2.806-1.2,8.419-1.2,10.8,0a7.076,7.076,0,0,1,2.806,2.033,9.066,9.066,0,0,1,2.013,3.235,9,9,0,0,0,10.8,5.64,9.407,9.407,0,0,0,5.187-4.437,9.141,9.141,0,0,0,.4-6.471,26.592,26.592,0,0,0-5.188-9.276,29.238,29.238,0,0,0-8.815-6.471c-1.191-.4-2.381-.8-3.6-1.2a8.424,8.424,0,0,0-16.781,0c-1.219.4-2.41.8-3.6,1.2a33.894,33.894,0,0,0-8.816,6.07,22.99,22.99,0,0,0-5.188,8.475,27.051,27.051,0,0,0-1.615,9.7c0,4.438.4,8.475,2.012,11.71a24.446,24.446,0,0,0,6.01,8.074,25.8,25.8,0,0,0,7.993,4.838,57.923,57.923,0,0,0,7.994,2.835c2.41.8,4.791,1.231,7.2,2.033a13.1,13.1,0,0,1,4.791,2,9.187,9.187,0,0,1,2.806,2.834,11.78,11.78,0,0,1,.794,4.839,17.617,17.617,0,0,1-.794,4.466,8.418,8.418,0,0,1-1.587,3.235,7.428,7.428,0,0,1-2.807,2,21.036,21.036,0,0,1-10.006,0,8.719,8.719,0,0,1-3.2-2,15.427,15.427,0,0,1-2.807-4.065,8.514,8.514,0,0,0-11.2-4.438,8.705,8.705,0,0,0-4.394,4.867,9.009,9.009,0,0,0,0,6.442,28.44,28.44,0,0,0,6.8,9.706,29.111,29.111,0,0,0,9.61,5.668h.4a8.409,8.409,0,0,0,8.391,8.074,7.724,7.724,0,0,0,7.994-7.673c1.615-.4,2.806-.83,4-1.231a25.553,25.553,0,0,0,9.213-6.442,23.189,23.189,0,0,0,5.187-9.3,29.236,29.236,0,0,0,1.616-10.107,25.278,25.278,0,0,0-3.6-13.743Z" fill="#60c49c"/>
      <path id="Path_2313" data-name="Path 2313" d="M3108.365,2423.31h357.166a27.558,27.558,0,0,1,27.354,27.6v92.19a5.563,5.563,0,0,1-5.528,5.583h-.481a5.539,5.539,0,0,1-5.5-5.583v-90.558a16.949,16.949,0,0,0-16.809-16.978H3109.329a16.926,16.926,0,0,0-16.781,16.978v196.519a16.925,16.925,0,0,0,16.781,16.977h355.238a16.949,16.949,0,0,0,16.809-16.977V2641.3a5.539,5.539,0,0,1,5.5-5.583h.481a5.563,5.563,0,0,1,5.528,5.583v9.419a27.558,27.558,0,0,1-27.354,27.6H3108.365a27.553,27.553,0,0,1-27.326-27.6V2450.91a27.553,27.553,0,0,1,27.326-27.6Zm373.011,196.634v-37.077a5.557,5.557,0,0,1,5.5-5.583h.481a5.582,5.582,0,0,1,5.528,5.583v37.077a5.563,5.563,0,0,1-5.528,5.583h-.481a5.539,5.539,0,0,1-5.5-5.583Z" fill="#419dd0" fill-rule="evenodd"/>
      <path id="Path_2314" data-name="Path 2314" d="M3481.376,2498.58h-.056c-34.47,0-62.391-28.2-62.391-63.016h12.926c0,27.6,22.139,49.96,49.465,49.96h.056Z" fill="#419dd0" fill-rule="evenodd"/>
      <path id="Path_2315" data-name="Path 2315" d="M3481.32,2602.994h-.057c-34.441,0-62.391,28.2-62.391,62.987H3431.8c0-27.571,22.139-49.96,49.465-49.96h.057Z" fill="#419dd0" fill-rule="evenodd"/>
      <path id="Path_2316" data-name="Path 2316" d="M3092.548,2498.522h.057c34.441,0,62.362-28.229,62.362-63.015h-12.926c0,27.6-22.139,49.96-49.436,49.96h-.057Z" fill="#60c49c" fill-rule="evenodd"/>
      <path id="Path_2317" data-name="Path 2317" d="M3092.491,2603.052h.057c34.441,0,62.362,28.2,62.362,62.986h-12.926c0-27.571-22.138-49.931-49.436-49.931h-.057Z" fill="#60c49c" fill-rule="evenodd"/>
      <path id="Path_2318" data-name="Path 2318" d="M3033.587,2548.139c33.619,0,61.03-27.686,61.03-61.67,0-33.956-27.411-61.641-61.03-61.641s-61.058,27.685-61.058,61.641c0,33.984,27.439,61.67,61.058,61.67Z" fill="#f8e390" fill-rule="evenodd"/>
      <path id="Path_2319" data-name="Path 2319" d="M3033.559,2521.856a35.346,35.346,0,1,0-35.008-35.358,35.236,35.236,0,0,0,35.008,35.358Z" fill="#fff2bf" fill-rule="evenodd"/>
      <path id="Path_2320" data-name="Path 2320" d="M3106.579,2502.1c33.619,0,61.03-27.685,61.03-61.641s-27.411-61.67-61.03-61.67c-33.647,0-61.058,27.714-61.058,61.67s27.411,61.641,61.058,61.641Z" fill="#ffcb63" fill-rule="evenodd"/>
      <path id="Path_2321" data-name="Path 2321" d="M3106.551,2475.818a35.346,35.346,0,1,0-35.008-35.358,35.236,35.236,0,0,0,35.008,35.358Z" fill="#f8e390" fill-rule="evenodd"/>
      <path id="Path_2322" data-name="Path 2322" d="M3455.383,2616.88v12.311a21.777,21.777,0,0,1,4.847,13.743v37.076a21.861,21.861,0,0,0,0,21.33v9.419c0,24.05-19.417,43.661-43.229,43.661H3059.836c-23.811,0-43.257-19.611-43.257-43.661V2510.948c0-24.05,19.446-43.661,43.257-43.661H3417c23.812,0,43.229,19.611,43.229,43.661v92.218a21.636,21.636,0,0,1-4.847,13.714Z" fill="#fefefe" fill-rule="evenodd"/>
      <path id="Path_2323" data-name="Path 2323" d="M3084.441,2506.253h333.241a21.965,21.965,0,0,1,21.8,21.988v180.915a21.946,21.946,0,0,1-21.8,21.988H3084.441a21.941,21.941,0,0,1-21.77-21.988V2528.241a21.959,21.959,0,0,1,21.77-21.988Z" fill="#e8e8e8" fill-rule="evenodd"/>
      <path id="Path_2324" data-name="Path 2324" d="M3262.825,2615.506a25.545,25.545,0,0,0-8.022-8.074,59.6,59.6,0,0,0-9.184-4.037,57.374,57.374,0,0,1-7.6-2.032,35.249,35.249,0,0,1-6.01-2.005,25.448,25.448,0,0,1-3.2-2.032,3.953,3.953,0,0,1-1.587-2.033c-.4-.4-.794-1.6-.794-4.438a11.981,11.981,0,0,1,.794-3.636,6.764,6.764,0,0,1,1.587-2.834,8.735,8.735,0,0,1,3.2-2c2.807-1.2,8.419-1.2,10.8,0a7.208,7.208,0,0,1,2.807,2,9.106,9.106,0,0,1,1.984,3.235,9.06,9.06,0,0,0,10.828,5.669,9.525,9.525,0,0,0,5.188-4.438,9.151,9.151,0,0,0,.4-6.47,26.726,26.726,0,0,0-5.188-9.305,30.234,30.234,0,0,0-8.816-6.471c-1.19-.4-2.409-.8-3.6-1.2a8.439,8.439,0,0,0-16.809,0c-1.191.4-2.381.8-3.6,1.2a34.91,34.91,0,0,0-8.787,6.07,22.948,22.948,0,0,0-5.188,8.5,26.806,26.806,0,0,0-1.616,9.677c0,4.438.4,8.5,2.013,11.71a25.2,25.2,0,0,0,5.981,8.1,26.9,26.9,0,0,0,8.022,4.839,61.994,61.994,0,0,0,7.994,2.834c2.381.8,4.79,1.2,7.2,2a13.346,13.346,0,0,1,4.79,2.033,9.185,9.185,0,0,1,2.807,2.835,11.672,11.672,0,0,1,.793,4.838,17.408,17.408,0,0,1-.793,4.438,7.716,7.716,0,0,1-1.616,3.235,7.486,7.486,0,0,1-2.778,2.033,21.066,21.066,0,0,1-10.006,0,9.191,9.191,0,0,1-3.2-2.033,14.622,14.622,0,0,1-2.807-4.037,8.492,8.492,0,0,0-11.2-4.438,8.649,8.649,0,0,0-4.393,4.839,9.085,9.085,0,0,0,0,6.47,27.649,27.649,0,0,0,6.8,9.677,28.48,28.48,0,0,0,9.581,5.669h.425a8.409,8.409,0,0,0,8.391,8.074,7.725,7.725,0,0,0,7.993-7.673c1.616-.4,2.807-.8,4-1.2a25.631,25.631,0,0,0,9.213-6.471,23.55,23.55,0,0,0,5.187-9.305,28.959,28.959,0,0,0,1.616-10.078,25.2,25.2,0,0,0-3.6-13.742Z" fill="#419dd0"/>
      <path id="Path_2325" data-name="Path 2325" d="M3059.836,2483.348H3417a27.552,27.552,0,0,1,27.326,27.6v92.218a5.556,5.556,0,0,1-5.5,5.583h-.482a5.58,5.58,0,0,1-5.527-5.583V2512.58a16.9,16.9,0,0,0-16.781-16.949H3060.8a16.9,16.9,0,0,0-16.781,16.949v196.547A16.925,16.925,0,0,0,3060.8,2726.1h355.238a16.925,16.925,0,0,0,16.781-16.978v-7.787a5.58,5.58,0,0,1,5.527-5.583h.482a5.556,5.556,0,0,1,5.5,5.583v9.419a27.552,27.552,0,0,1-27.326,27.6H3059.836a27.534,27.534,0,0,1-27.326-27.6V2510.948a27.534,27.534,0,0,1,27.326-27.6Zm372.983,196.662v-37.076a5.562,5.562,0,0,1,5.527-5.583h.482a5.538,5.538,0,0,1,5.5,5.583v37.076a5.556,5.556,0,0,1-5.5,5.583h-.482a5.58,5.58,0,0,1-5.527-5.583Z" fill="#419dd0" fill-rule="evenodd"/>
      <path id="Path_2326" data-name="Path 2326" d="M3432.819,2558.617h-.029c-34.469,0-62.39-28.2-62.39-62.986h12.926c0,27.571,22.138,49.931,49.464,49.931h.029Z" fill="#419dd0" fill-rule="evenodd"/>
      <path id="Path_2327" data-name="Path 2327" d="M3432.762,2663.032h-.028c-34.47,0-62.391,28.2-62.391,63.016h12.926c0-27.6,22.139-49.96,49.465-49.96h.028Z" fill="#419dd0" fill-rule="evenodd"/>
      <path id="Path_2328" data-name="Path 2328" d="M3044.019,2558.56h.028c34.469,0,62.391-28.2,62.391-62.987h-12.926c0,27.571-22.139,49.932-49.465,49.932h-.028Z" fill="#419dd0" fill-rule="evenodd"/>
      <path id="Path_2329" data-name="Path 2329" d="M3043.962,2663.09h.028c34.47,0,62.391,28.2,62.391,63.015h-12.926c0-27.6-22.139-49.96-49.465-49.96h-.028Z" fill="#419dd0" fill-rule="evenodd"/>
    </g>
    <g id="Group_2513" data-name="Group 2513">
      <path id="Path_2330" data-name="Path 2330" d="M3598.259,2644.634l0,0a41.481,41.481,0,0,0-29.525-12.217h-.267a40.815,40.815,0,0,0-29.13,12.269,42.374,42.374,0,0,0-5.716,7.1h-10.149a22.711,22.711,0,0,0-6.34.9,86.2,86.2,0,0,0-22.8-40.188q-.417-.419-.853-.839a23.171,23.171,0,0,0,3.85-4.833l5.051-8.736a35.384,35.384,0,0,0,9.437-1.6,41.847,41.847,0,0,0,9.631-76.448,41.88,41.88,0,0,0-57.121,15.465,41.677,41.677,0,0,0-4.1,31.7l.083.295a45.892,45.892,0,0,0,3.279,8.193l-5.031,8.7-.415.77a21.992,21.992,0,0,0-1.791,5.055,88.022,88.022,0,0,0-47.558.1,21.482,21.482,0,0,0-2.266-5.776l-4.857-8.636a38.041,38.041,0,0,0,3.43-8.958,41.884,41.884,0,0,0-29.6-51.016,42.357,42.357,0,0,0-31.511,4l-.17.1a41.841,41.841,0,0,0,10.032,76.557l.614.151a50.629,50.629,0,0,0,8.408,1.33l5,8.642.108.183a22.782,22.782,0,0,0,3.938,4.886q-.369.357-.722.711a86.207,86.207,0,0,0-22.8,40.189,22.718,22.718,0,0,0-6.341-.9h-10.08a46.927,46.927,0,0,0-5.174-6.733l-.4-.422a41.472,41.472,0,0,0-29.524-12.218h-.265a40.79,40.79,0,0,0-29.051,12.188,41.339,41.339,0,0,0-.291,58.9,41.961,41.961,0,0,0,29.437,12.283,40.5,40.5,0,0,0,29.531-12.379,42.229,42.229,0,0,0,5.672-7.058h10.149a22.687,22.687,0,0,0,6.341-.9,86.218,86.218,0,0,0,22.8,40.189q.418.419.855.841a21.25,21.25,0,0,0-3.934,4.967l-4.984,8.622a41.868,41.868,0,0,0-19.292,78.041l.174.1a42.13,42.13,0,0,0,20.592,5.493,36.229,36.229,0,0,0,11.158-1.643,41.791,41.791,0,0,0,29.011-51.138l-.08-.284a45.994,45.994,0,0,0-3.28-8.194l4.907-8.488a21.787,21.787,0,0,0,2.574-6.116,88,88,0,0,0,47.6.036,22.16,22.16,0,0,0,2.323,5.863l4.971,8.6a37.94,37.94,0,0,0-3.371,8.85,41.79,41.79,0,0,0,29.493,50.982l.606.149a45.461,45.461,0,0,0,10.144,1.383,42.159,42.159,0,0,0,20.617-5.509l.168-.095a41.934,41.934,0,0,0,19.373-25.259,41.436,41.436,0,0,0-28.943-51.242,39.47,39.47,0,0,0-9.482-1.526l-4.95-8.561a21.446,21.446,0,0,0-3.976-5.025c.294-.284.58-.566.862-.848a86.2,86.2,0,0,0,22.8-40.189,22.681,22.681,0,0,0,6.34.9h10.081a47.387,47.387,0,0,0,5.236,6.8l.341.353a41.96,41.96,0,0,0,29.436,12.283,40.555,40.555,0,0,0,29.5-12.344,41.34,41.34,0,0,0,.2-58.807Z" fill="#fff"/>
      <g id="surface1">
        <path id="Path_2331" data-name="Path 2331" d="M3386.948,2628.259a64.789,64.789,0,1,1,0,91.625,64.784,64.784,0,0,1,0-91.625" fill="#419dd0"/>
        <path id="Path_2332" data-name="Path 2332" d="M3405.272,2646.585a38.875,38.875,0,1,1,0,54.978A38.877,38.877,0,0,1,3405.272,2646.585Z" fill="#fff" opacity="0.29"/>
        <path id="Path_2333" data-name="Path 2333" d="M3316.137,2674.072a19.437,19.437,0,1,0-19.437,19.437A19.435,19.435,0,0,0,3316.137,2674.072Z" fill="#fff"/>
        <path id="Path_2334" data-name="Path 2334" d="M3588.256,2674.072a19.437,19.437,0,1,0-19.437,19.437A19.435,19.435,0,0,0,3588.256,2674.072Z" fill="#fff"/>
        <path id="Path_2335" data-name="Path 2335" d="M3384.309,2791.95a19.437,19.437,0,1,0-19.437,19.437A19.436,19.436,0,0,0,3384.309,2791.95Z" fill="#fff"/>
        <path id="Path_2336" data-name="Path 2336" d="M3520.075,2556.192a19.438,19.438,0,1,0-19.437,19.437A19.439,19.439,0,0,0,3520.075,2556.192Z" fill="#fff"/>
        <path id="Path_2337" data-name="Path 2337" d="M3520.267,2792.054a19.437,19.437,0,1,0-19.437,19.437A19.436,19.436,0,0,0,3520.267,2792.054Z" fill="#fff"/>
        <path id="Path_2338" data-name="Path 2338" d="M3384.114,2556.093a19.437,19.437,0,1,0-19.437,19.437A19.437,19.437,0,0,0,3384.114,2556.093Z" fill="#fff"/>
        <path id="Path_2339" data-name="Path 2339" d="M3432.762,2746.637a71.927,71.927,0,0,1-51.313-21.251,72.731,72.731,0,0,1,0-102.627,72.575,72.575,0,0,1,102.627,0,72.733,72.733,0,0,1,0,102.627A71.929,71.929,0,0,1,3432.762,2746.637Zm0-129.58a56.887,56.887,0,0,0-40.428,97.185,56.647,56.647,0,0,0,40.428,16.846,56.888,56.888,0,0,0,40.428-97.186A56.647,56.647,0,0,0,3432.762,2617.057Z" fill="#444b54"/>
        <path id="Path_2340" data-name="Path 2340" d="M3588,2654.893a27.065,27.065,0,0,0-38.358,0,24.783,24.783,0,0,0-6.737,11.405h-19.438a7.774,7.774,0,0,0,0,15.549h19.179a30.249,30.249,0,0,0,6.738,11.4,27.314,27.314,0,0,0,19.178,8.033,26.258,26.258,0,0,0,19.177-8.033A26.836,26.836,0,0,0,3588,2654.893Zm-10.886,27.473a11.729,11.729,0,1,1,0-16.587A12.058,12.058,0,0,1,3577.115,2682.366Z" fill="#444b54"/>
        <path id="Path_2341" data-name="Path 2341" d="M3507.919,2765.556a26.4,26.4,0,0,0-13.477-.259l-9.589-16.587a7.779,7.779,0,0,0-13.475,7.775l9.587,16.587a26.077,26.077,0,0,0-6.479,11.662,27.29,27.29,0,0,0,19.179,33.431,32.577,32.577,0,0,0,7,1.037,27.639,27.639,0,0,0,13.477-3.629,27.264,27.264,0,0,0,12.7-16.585A26.932,26.932,0,0,0,3507.919,2765.556Zm4.145,29.284a11.412,11.412,0,0,1-5.441,7,10.564,10.564,0,0,1-8.812,1.038,11.424,11.424,0,0,1-7-5.444,10.552,10.552,0,0,1-1.037-8.81,11.412,11.412,0,0,1,5.441-7,10.577,10.577,0,0,1,8.812-1.038A11.877,11.877,0,0,1,3512.064,2794.84Z" fill="#444b54"/>
        <path id="Path_2342" data-name="Path 2342" d="M3384.559,2575.072a26.068,26.068,0,0,0,6.479-11.662,27.287,27.287,0,0,0-19.179-33.43,27.639,27.639,0,0,0-20.732,2.592,27.338,27.338,0,0,0,6.479,50.017,32.589,32.589,0,0,0,7,1.035,25.517,25.517,0,0,0,6.219-.777l9.589,16.588a7.816,7.816,0,0,0,6.74,3.887,7.316,7.316,0,0,0,3.887-1.038,7.934,7.934,0,0,0,2.85-10.624Zm-22.808-7.514a11.7,11.7,0,0,1-8.291-14.254,11.419,11.419,0,0,1,5.441-7,10.566,10.566,0,0,1,8.813-1.038,11.419,11.419,0,0,1,6.995,5.444,10.549,10.549,0,0,1,1.038,8.81,11.417,11.417,0,0,1-5.442,7A12.07,12.07,0,0,1,3361.751,2567.558Z" fill="#444b54"/>
        <path id="Path_2343" data-name="Path 2343" d="M3342.056,2681.847a7.774,7.774,0,1,0,0-15.549h-19.179a30.266,30.266,0,0,0-6.737-11.405,27.215,27.215,0,1,0-19.437,46.391,26.26,26.26,0,0,0,19.179-8.033,24.793,24.793,0,0,0,6.737-11.4Zm-37.06.519a11.729,11.729,0,1,1,0-16.587A12.058,12.058,0,0,1,3305,2682.366Z" fill="#444b54"/>
        <path id="Path_2344" data-name="Path 2344" d="M3474.228,2602.284a7.32,7.32,0,0,0,3.887,1.038,7.809,7.809,0,0,0,6.738-3.887l9.589-16.588a25.535,25.535,0,0,0,6.221.777,21.859,21.859,0,0,0,7-1.035,27.34,27.34,0,0,0,6.479-50.017,26.357,26.357,0,0,0-20.733-2.592,27.286,27.286,0,0,0-19.179,33.43,28.778,28.778,0,0,0,6.479,11.662l-9.589,16.588A8.277,8.277,0,0,0,3474.228,2602.284Zm16.587-51.832a12.172,12.172,0,0,1,7-5.441,12.935,12.935,0,0,1,3.11-.519,11.118,11.118,0,0,1,5.7,1.554,12.178,12.178,0,0,1,5.441,7,11.7,11.7,0,0,1-8.291,14.254,10.567,10.567,0,0,1-8.812-1.036,12.179,12.179,0,0,1-5.442-7A11.532,11.532,0,0,1,3490.815,2550.452Z" fill="#444b54"/>
        <path id="Path_2345" data-name="Path 2345" d="M3391.3,2745.86a7.934,7.934,0,0,0-10.624,2.85l-9.59,16.587a26.446,26.446,0,0,0-13.476.259,27.338,27.338,0,0,0-6.479,50.017,27.627,27.627,0,0,0,13.476,3.629,21.8,21.8,0,0,0,7-1.037,27.288,27.288,0,0,0,19.177-33.431,28.789,28.789,0,0,0-6.479-11.662l9.589-16.587A7.625,7.625,0,0,0,3391.3,2745.86Zm-16.587,51.833a12.17,12.17,0,0,1-6.995,5.441,11.491,11.491,0,0,1-8.813-1.035,12.187,12.187,0,0,1-5.441-7,11.7,11.7,0,0,1,8.291-14.254,12.944,12.944,0,0,1,3.111-.519,11.118,11.118,0,0,1,5.7,1.554,12.183,12.183,0,0,1,5.441,7A11.524,11.524,0,0,1,3374.709,2797.693Z" fill="#444b54"/>
      </g>
    </g>
  </g>
</svg>
