<svg xmlns="http://www.w3.org/2000/svg" width="478" height="307" viewBox="0 0 478 307">
  <g id="Group_3082" data-name="Group 3082" transform="translate(-6212 20824)">
    <rect id="Rectangle_4263" data-name="Rectangle 4263" width="478" height="307" rx="40" transform="translate(6212 -20824)" fill="#d40012"/>
    <g id="Group_3076" data-name="Group 3076" transform="translate(6250.001 -20718.424)">
      <path id="Path_4201" data-name="Path 4201" d="M117.29-286.54q89.375,0,178.751-.078c3.206-.006,4.01.822,3.928,3.962-.177,6.759-.059,13.517-2.175,20.051-1.4,4.316-3.83,6.1-8.249,6.1-26.65,0-53.3.331-79.948-.058-100.727-1.472-201.457-.2-302.186-.582-3.514-.014-3.841-.821-2.929-4.142,1.731-6.309,3.78-12.268,8.411-17.128,4.589-4.816,10.472-6.6,16.732-7.386,8.87-1.118,17.8-.731,26.718-.733Q36.816-286.548,117.29-286.54Z" transform="translate(96.516 345.922)" fill="#fff"/>
      <path id="Path_4202" data-name="Path 4202" d="M292.26-239.646a21.744,21.744,0,0,1-16.66,6.964q-121.294.046-242.587.02H-92.295a4.156,4.156,0,0,1-3.932-6.241,1.323,1.323,0,0,1,1.4-.73c.814-.017,1.629-.013,2.443-.013H292.26Z" transform="translate(96.757 331.856)" fill="#fff"/>
      <path id="Path_4203" data-name="Path 4203" d="M-26.522-328.86c-4.322-8.337-8.371-16.813-12.631-25.184-1.947-3.825-4.133-7.531-6.186-11.307-3.061-5.639-8.329-6.067-14.158-5.892a24.133,24.133,0,0,0-10.4,1.66c-4.091,1.681-5.289,5.443-7.054,8.694q-8.659,15.93-16.8,32.14c-2,3.965-.623,6.347,3.608,7.818a19.883,19.883,0,0,0,10.235.4c4.448-.82,7.4-4.014,8.6-8.329.89-3.208,2.445-4.336,5.772-4.063a110.643,110.643,0,0,0,12.2.042c2.06-.056,3.159.364,3.881,2.648,1.191,3.825,3.166,7.236,7.377,8.8a21.16,21.16,0,0,0,11.489.953C-26.22-321.343-23.46-322.976-26.522-328.86ZM-63.1-342.612c-1.835.042-2.3-.512-1.4-2.235,1.618-3.1,3.117-6.27,4.9-9.892a91.691,91.691,0,0,1,4.918,12.113C-57.569-342.626-60.337-342.668-63.1-342.612Z" transform="translate(96.125 371.273)" fill="#fff"/>
      <path id="Path_4204" data-name="Path 4204" d="M216.189-342.727A100.963,100.963,0,0,0,197.2-320.46a4.167,4.167,0,0,0-.878,2.516c.817,4.588-2.445,4.693-5.394,4.99-7.529.761-9.835-1.486-6.513-9.359,3.457-8.189,6.961-16.376,8.4-25.255a3.545,3.545,0,0,1,3.3-3.259,19.486,19.486,0,0,1,6.456-.412c4.092.626,5.232,3.167,3.453,6.949-.467.99-.962,1.968-1.874,3.833,3.809-2.833,6.758-5.2,9.884-7.307a19.214,19.214,0,0,1,11.458-3.6c3.695.105,4.854,1.286,5.015,4.94a17.452,17.452,0,0,1-1.331,7.344c3.737-4.139,7.4-8.214,12.524-10.607a20.219,20.219,0,0,1,10.706-1.61c3.415.329,4.849,3.61,3.442,7.756-1.877,5.534-4.017,10.982-5.79,16.548-1.085,3.408-3.084,6.794-.836,10.622.623,1.06.008,2.253-1.658,2.809-3.309,1.1-6.653.684-9.942.521-2.466-.123-3.642-4.412-2.652-8.261a160.941,160.941,0,0,1,6.162-17.836,5.2,5.2,0,0,0,.435-2.636c-5.1,2.829-12.179,10-17.163,18-1.61,2.583-4.261,4.96-3.148,8.757.253.862-1.043,2.029-2.353,2.062-3.1.076-6.256.339-9.225-.731-2.727-.983-1.724-3.192-1.07-4.945,2.083-5.581,4.344-11.1,6.49-16.653C215.945-337.469,216.921-339.659,216.189-342.727Z" transform="translate(13 365.328)" fill="#fff"/>
      <path id="Path_4205" data-name="Path 4205" d="M154.675-348.121c-.07-2.872-.581-5.969-4.182-6.151-4.224-.217-8.589-.834-12.694.679a8.4,8.4,0,0,1-4.981.175c-7.37-1.513-14.676-1.969-21.366,2.515-7.979,5.345-12.365,18.368-5.772,27.629,4.778,6.725,14.83,8.07,22.284,7.075,2.942-.385,6.081-2.375,8.715-1.212,4.413,1.947,8.8,1.548,13.247,1.387,2.893-.112,4.764-2.522,4.778-5.569.014-4.308,0-8.609,0-12.918C154.7-339.043,154.787-343.582,154.675-348.121ZM136.4-329.648c-.694,2.613-4.021,5.03-6.48,4.533-3.005-.61-6.242-1.051-6.739-5.268a25.2,25.2,0,0,1-.574-4.33,22.64,22.64,0,0,1,.021-3.482c.883-5.1,3.272-7.286,7.643-7.111,4.266.161,6.522,2.739,6.984,7.881A22.367,22.367,0,0,1,136.4-329.648Z" transform="translate(37.096 366.275)" fill="#fff"/>
      <path id="Path_4206" data-name="Path 4206" d="M334.818-349.65c-3.909-.014-7.881-1.878-11.72.49-.771.477-1.709.035-2.627-.2-7.195-1.863-14.137-1.576-20.687,2.452-4.8,2.949-8.175,7.181-11.426,11.622a22.694,22.694,0,0,0-4.743,16.3c.329,3.173,1.485,6.13,4.672,6.8a18.163,18.163,0,0,0,8.862-.28c6.333-1.856,10.795-6.024,15.055-11.685a7.4,7.4,0,0,1-.378,2.6c-1.163,3.811.49,7.769,3.72,9.03s6.529.764,9.675-.357a2.3,2.3,0,0,0,1.639-2.732c-1.941-7.944.567-14.879,4.61-21.59a33.285,33.285,0,0,0,4.427-10.186C336.072-348.235,336.618-349.643,334.818-349.65Zm-31.86,27.09c-1.569,1.2-2.711,2.459-3.4-1.044-1.17-5.983,1.485-10.452,4.68-14.831a22.939,22.939,0,0,1,4.21-4.105c4.126-3.327,7.587-.567,11.3,1.661C314.881-334.161,309.662-327.681,302.958-322.56Z" transform="translate(-17.112 365.043)" fill="#fff"/>
      <path id="Path_4207" data-name="Path 4207" d="M76.046-336.292q0,4.882,0,9.763c0,3.6-1.463,5.779-5.017,6.043-3.622.269-7.361.675-10.953-.594-2.369-.836-3.742-2.1-3.651-5,.216-6.851.026-13.714.1-20.57.018-1.685-.273-2.713-2.233-2.363-1.3.231-2.436-.367-3.644-.67-2.1-.528-3.491-1.338-3.289-3.943.2-2.569,2.209-3.86,3.815-3.6,5.456.877,5.665-2.056,5.38-6.068-.162-2.282,3.51-4.594,7.373-5.29,6.411-1.155,12.8-.634,19.191.029,1.947.2,2.694,1.4,2.731,3.305.038,2.005-.571,3.376-2.73,3.664a47.87,47.87,0,0,1-5.408.655c-1.467.027-1.659.646-1.7,1.893-.053,1.509.69,1.714,1.906,1.66,1.391-.061,2.788-.01,4.182-.013a3.594,3.594,0,0,1,3.63,3.056,3.218,3.218,0,0,1-2.061,3.891c-1.827.633-3.564,2-5.744.971-1.718-.81-1.9.309-1.887,1.671C76.069-343.963,76.047-340.127,76.046-336.292Z" transform="translate(53.606 370.671)" fill="#fff"/>
      <path id="Path_4208" data-name="Path 4208" d="M13.556-345.379c0-5.7-.012-11.4,0-17.095.013-4.813,1.321-6.743,5.973-7.633a20.586,20.586,0,0,1,7.609,0c4.691.907,5.965,2.811,5.966,7.628,0,10.815-.269,21.639.08,32.443.315,9.756-5.7,10.812-13.006,9.733-5.88-.868-6.626-2.4-6.626-8.681Z" transform="translate(63.724 371.03)" fill="#fff"/>
      <path id="Path_4209" data-name="Path 4209" d="M423.027-339.984c-2.626-1.208-5.007.321-7.467.386-2.125.055-2.518-.625-2.137-2.62.815-4.27,4.334-4.309,7.431-5.075,1.617-.4,3.922.931,4.807-.677a18.3,18.3,0,0,0,2.275-7.369c.425-5.65.406-5.713,6.107-5.925a14.722,14.722,0,0,1,5.153.3c3.508,1.1,4.3,2.628,2.9,6.139-.792,1.982-1.5,4-2.306,5.974-.541,1.314-.475,2.289,1.215,2.187,2.281-.137,4.555.351,6.869-.431,1.348-.456,3.633-1.14,4.326.462.849,1.965-.665,3.736-2.423,4.821-3.107,1.917-6.63,1.628-10.027,1.4-2.444-.164-3.752.652-4.541,2.917-1.106,3.173-2.664,6.209-3.542,9.437-.472,1.735-1.155,4.074.637,5.52a4.972,4.972,0,0,0,5.775.466c.876-.473,1.995-.5,2.865-.978,1.208-.666,2.74-1.07,3.451-.116a3.636,3.636,0,0,1-.167,3.883c-2.08,3.4-5.432,4.267-9.061,5.038a24.4,24.4,0,0,1-13.736-1.122c-3.346-1.228-4.791-6.367-3.762-10.861C418.778-331.08,421.481-335.29,423.027-339.984Z" transform="translate(-55.984 368.301)" fill="#fff"/>
      <path id="Path_4210" data-name="Path 4210" d="M375.342-340.944a32.987,32.987,0,0,1,10.253-7.463,9.327,9.327,0,0,1,4.286-.962c4.531.081,5.854,2.153,4.224,6.471-1.208,3.2-3.829,5.127-6.131,7.339a1.7,1.7,0,0,1-2.568-.109c-2.188-1.927-4.365-1.157-6.331.754-4.786,4.65-9.444,9.4-12.988,15.112-1.152,1.859-2.614,3.569-1.629,6.1.442,1.138-.409,2.03-1.667,2.052a63.711,63.711,0,0,1-8.714-.08c-3-.363-3.973-2.682-2.813-5.5,2.785-6.76,5.987-13.356,8.112-20.376.651-2.154,1.711-4.417,1.527-6.54-.307-3.554,1.177-4.537,4.312-4.942a32.521,32.521,0,0,1,6.916-.162c2.8.237,4.121,1.91,3.635,4.917C375.6-343.325,374.551-342.54,375.342-340.944Z" transform="translate(-37.266 364.714)" fill="#fff"/>
    </g>
  </g>
</svg>
