<svg xmlns="http://www.w3.org/2000/svg" width="478" height="307" viewBox="0 0 478 307">
  <g id="Group_3083" data-name="Group 3083" transform="translate(-6212 20470)">
    <rect id="Rectangle_4264" data-name="Rectangle 4264" width="478" height="307" rx="40" transform="translate(6212 -20470)" fill="#002a6d"/>
    <g id="Group_3077" data-name="Group 3077" transform="translate(6240.428 -20373.676)">
      <path id="Path_4211" data-name="Path 4211" d="M71.158,6.657h-.412A116.683,116.683,0,0,0,17.7,19.49C10.769,35.961,6.857,52.705,6.652,69.794c-.275,16.95,3.225,34.312,10.98,52.019q26.764,11.631,53.527,11.941,26.764-.309,53.526-11.941c7.755-17.706,11.255-35.069,10.98-52.019-.206-17.088-4.118-33.833-11.048-50.3A116.686,116.686,0,0,0,71.57,6.657Z" transform="translate(-1.985 -1.99)" fill="#002a6d" fill-rule="evenodd"/>
      <path id="Path_4212" data-name="Path 4212" d="M12.833,13.724h0A121.341,121.341,0,0,1,68.761,0h.824a121.339,121.339,0,0,1,55.928,13.725h0l1.1,1.167c7.343,17.294,11.529,34.931,11.735,52.842v2.2a129.385,129.385,0,0,1-11.735,52.636l-1.235,1.166c-18.735,8.3-37.469,12.49-56.2,12.7-18.735-.205-37.469-4.392-56.2-12.7l-1.236-1.166A129.385,129.385,0,0,1,0,69.93v-2.2C.206,49.822,4.392,32.185,11.735,14.891l1.1-1.167Zm56.34-9.059h-.412A116.683,116.683,0,0,0,15.715,17.5C8.784,33.969,4.872,50.714,4.667,67.8c-.275,16.95,3.225,34.312,10.98,52.019q26.764,11.631,53.527,11.941,26.764-.309,53.526-11.941c7.755-17.706,11.254-35.069,10.98-52.019-.206-17.088-4.118-33.833-11.048-50.3A116.686,116.686,0,0,0,69.585,4.666Z" transform="translate(0 0.001)" fill="#fff" fill-rule="evenodd"/>
      <path id="Path_4213" data-name="Path 4213" d="M91.079,112.392c-.961-13.108-.344-26.764-4.255-39.254-3.637-11.667-17.431-18.324-17.7-31.156A21.113,21.113,0,0,1,90.736,20.365c13.382-.069,21.685,9.676,22.646,20.519,1.167,12.558-14.068,21-18.048,32.941C91.217,86.04,92.383,99.559,91.079,112.392Z" transform="translate(-20.671 -6.09)" fill="#fff" fill-rule="evenodd"/>
      <path id="Path_4214" data-name="Path 4214" d="M107.874,123.457c-.549-11.392-.549-22.3,2.607-31.98,3.5-10.98,10.774-20.244,21.892-23.264,7.617-2.059,18.8,6.863,17.019,15.99-1.51,7.343-8.852,15.99-20.656,16.95-5.49.481-7.824,4.873-11.255,7.412,15.372-1.51,25.322-7.549,32.253-13.863,1.03,5.353,1.716,14.343-2.471,17.431-8.234,5.833-15.852,1.1-25.528,3.843C116.315,117.555,112.953,120.986,107.874,123.457Z" transform="translate(-32.182 -20.312)" fill="#fff" fill-rule="evenodd"/>
      <path id="Path_4215" data-name="Path 4215" d="M74.845,123.457c.618-11.392.549-22.3-2.539-31.98-3.5-10.98-10.774-20.244-21.891-23.264C42.8,66.154,31.543,75.076,33.4,84.2c1.51,7.343,8.852,15.99,20.656,16.95,5.422.481,7.823,4.873,11.255,7.412-15.44-1.51-25.322-7.549-32.254-13.863-1.029,5.353-1.715,14.343,2.471,17.431,8.235,5.833,15.852,1.1,25.529,3.843C66.473,117.555,69.767,120.986,74.845,123.457Z" transform="translate(-9.652 -20.312)" fill="#fff" fill-rule="evenodd"/>
      <path id="Path_4216" data-name="Path 4216" d="M115.7,167.513v-1.852l1.373-.344-1.373-2.059v-3.431l6.176,8.578-2.2.549-1.51-2.127-2.471.686Zm0-7.686-.411-.617-2.2.549-1.441,11.186,2.2-.549.275-2.54,1.578-.343v-1.852l-1.372.343.412-4.117.96,1.372v-3.431Zm-20.45,13.656h0V171.7h.48a8.378,8.378,0,0,0,1.441-.206,1.255,1.255,0,0,0,.686-.481,1.377,1.377,0,0,0,.275-.892,1.513,1.513,0,0,0-.343-.824,1.17,1.17,0,0,0-.686-.411,7.686,7.686,0,0,0-1.853,0V167.1c.549,0,.892-.069,1.03-.069a1.648,1.648,0,0,0,.824-.481.855.855,0,0,0,.205-.823.888.888,0,0,0-.343-.756.938.938,0,0,0-.824-.343,5.8,5.8,0,0,0-.892.069v-1.785a6.379,6.379,0,0,1,1.647,0,2.889,2.889,0,0,1,2.059,1.1,3.3,3.3,0,0,1,.412,1.236,2.371,2.371,0,0,1-.275,1.372,2.474,2.474,0,0,1-1.03,1.029,2.689,2.689,0,0,1,1.578.824,2.376,2.376,0,0,1,.686,1.51,5.222,5.222,0,0,1-.206,1.441,3.573,3.573,0,0,1-.824,1.167,4.187,4.187,0,0,1-1.372.618c-.343.069-1.236.137-2.539.274Zm12.97-5.764h0l2.127.274a4.131,4.131,0,0,1-3.706,4.118,4.765,4.765,0,0,1-3.637-.824,5.661,5.661,0,0,1-2.059-3.637,5.737,5.737,0,0,1,.686-4.255,4.639,4.639,0,0,1,3.226-2.059,4.448,4.448,0,0,1,3.294.617,3.56,3.56,0,0,1,1.372,1.716l-1.991.824a2.169,2.169,0,0,0-.96-1.1,2.308,2.308,0,0,0-1.51-.275,2.543,2.543,0,0,0-1.716,1.166,4.057,4.057,0,0,0-.275,2.814,4.869,4.869,0,0,0,1.236,2.676,2.309,2.309,0,0,0,1.99.549,2.38,2.38,0,0,0,1.3-.824,3.238,3.238,0,0,0,.618-1.784Zm-12.97-4.8a.253.253,0,0,0-.206.069l-4.186.343.961,10.5,3.431-.343V171.7l-1.51.137-.206-2.814,1.647-.137h.069V167.1a1.169,1.169,0,0,1-.48.069l-1.441.137-.206-2.4,1.235-.137c.343,0,.618-.069.892-.069v-1.785ZM82,169.847h0v-1.785a2.837,2.837,0,0,0,.961-.138,1.572,1.572,0,0,0,.686-.48,1.834,1.834,0,0,0,.206-.824,1.16,1.16,0,0,0-.275-.96,1.274,1.274,0,0,0-.824-.481c-.206,0-.411-.069-.755-.069v-1.784a6.1,6.1,0,0,1,1.99.205,2.523,2.523,0,0,1,1.51,1.03,2.917,2.917,0,0,1,.549,2.059,4.141,4.141,0,0,1-.343,1.647,4.363,4.363,0,0,1-.892,1.029,8.369,8.369,0,0,1-1.166.481,11.16,11.16,0,0,1-1.647.069Zm0-6.519h-.549l-3.363-.069-.206,10.5,2.128.069.069-3.98H82v-1.785H80.152v-3.02l1.03.069H82v-1.784Zm-19.832,5.489h0v-3.225a5.3,5.3,0,0,0,1.235.137,1.3,1.3,0,0,0,.686-.344,1.931,1.931,0,0,0,.343-.755,1.307,1.307,0,0,0-.137-.892,1.289,1.289,0,0,0-.755-.549,10.826,10.826,0,0,0-1.372-.275v-1.785l.892.137a8.021,8.021,0,0,1,2.333.686,2.3,2.3,0,0,1,1.03,1.236,2.856,2.856,0,0,1,.137,1.716,2.773,2.773,0,0,1-1.03,1.784,3.349,3.349,0,0,1-2.2.618,4.383,4.383,0,0,1,.961,1.029,10.4,10.4,0,0,1,.892,1.921l.892,2.265-2.47-.48-1.1-2.539c-.137-.206-.205-.48-.343-.686Zm6.039-6.519h0l2.059.205-.48,5.7c-.069.892-.069,1.51-.069,1.716a1.862,1.862,0,0,0,.549,1.1,2.1,2.1,0,0,0,1.372.549,1.959,1.959,0,0,0,1.372-.275,1.6,1.6,0,0,0,.686-.824c.069-.343.137-.961.206-1.784l.48-5.834,2.127.206-.48,5.49a8.986,8.986,0,0,1-.411,2.676,3.046,3.046,0,0,1-.687,1.235,2.969,2.969,0,0,1-1.372.756,4.449,4.449,0,0,1-1.99.137,5.426,5.426,0,0,1-2.265-.549,4.176,4.176,0,0,1-1.166-.96,3.087,3.087,0,0,1-.481-1.236,17.167,17.167,0,0,1,0-2.677l.549-5.627Zm-16.676,3.088h0l.412-1.716,4.461,1.167-1.1,4.049a4.636,4.636,0,0,1-2.2.617,7.791,7.791,0,0,1-2.539-.206,5.552,5.552,0,0,1-2.608-1.373,4.88,4.88,0,0,1-1.3-2.4,6.82,6.82,0,0,1,.137-2.883,6.342,6.342,0,0,1,1.441-2.676,4.356,4.356,0,0,1,2.4-1.3,4.909,4.909,0,0,1,2.607.137A4.868,4.868,0,0,1,56,160.376a3.614,3.614,0,0,1,.755,2.539l-2.127-.138a2.156,2.156,0,0,0-.48-1.441,2.738,2.738,0,0,0-1.372-.824,3,3,0,0,0-2.333.275,3.976,3.976,0,0,0-1.51,2.333A4.238,4.238,0,0,0,49,166.072a2.8,2.8,0,0,0,1.853,1.441,4.667,4.667,0,0,0,1.372.137,7.273,7.273,0,0,0,1.3-.343l.343-1.3-2.333-.617Zm10.637-4.255h0l-3.568-.618L56.82,170.876l2.059.343.755-4.323.481.069a5.159,5.159,0,0,1,1.029.275,4.1,4.1,0,0,1,.549.549c.068.206.274.549.48,1.029v-3.225c-.206,0-.412-.069-.686-.069l-1.51-.275.411-2.608,1.647.275h.137Z" transform="translate(-13.93 -47.417)" fill="#fff" fill-rule="evenodd"/>
      <path id="Path_4217" data-name="Path 4217" d="M443.184,108.669V89.317h8.509V55.278L443.184,72.3V29.818H476.6l8.51,97.861h-33.42v-19.01Zm0-78.851h-11.8L418.2,54.386h4.736l-23.127,49.892V126.65h20.724l6.588-17.98h16.058V89.317h-8.51l8.51-17.02V29.818Zm-43.371,32.6V32.082l10.362,5.765L399.813,62.415Zm-82.417-9.4h0a23.32,23.32,0,0,0,0-8.166v8.166Zm82.417-20.931h0V62.415l-1.372,3.294c-20.45-14.618-50.644-1.3-52.36,14.137-1.716,16.127,10.568,29.166,41.929,19.422l-10.774,28.823c-41.38,4.6-57.439-11.8-59.84-30.951V86.3A59.28,59.28,0,0,1,321.1,71.885c20.381-50.646,53.458-39.254,66.016-40.215l1.853-5.628,10.842,6.039Zm0,72.2V126.65H389.451l10.362-22.372ZM280.2,126.032V102.219c6.519-4.324,10.088-18.324,0-20.245V67.151h4.186c9.333,0,10.294-19.353,2.813-19.353h-7v-18.8l16.882.343c12.284.206,18.8,7.069,20.313,15.51v8.166a29.211,29.211,0,0,1-15.1,20.794c21.823,21.205.069,47.832-22.1,52.225ZM317.4,86.3a47.692,47.692,0,0,0,0,10.843V86.3ZM250.968,28.376h0l-13.656,26.49,6.108-.481-16.47,72.264h47.145a30.767,30.767,0,0,0,6.108-.617V102.219a6.607,6.607,0,0,1-3.774,1.3h-16.95L265.1,81.768h12.7a12.527,12.527,0,0,1,2.4.205V67.151H268.4L273.133,47.8H280.2v-18.8Z" transform="translate(-67.878 -7.788)" fill="#fff" fill-rule="evenodd"/>
    </g>
  </g>
</svg>
