<svg xmlns="http://www.w3.org/2000/svg" width="478" height="305" viewBox="0 0 478 305">
  <g id="Group_3085" data-name="Group 3085" transform="translate(-6212 19761)">
    <rect id="Rectangle_4266" data-name="Rectangle 4266" width="478" height="305" rx="40" transform="translate(6212 -19761)" fill="#00529c"/>
    <g id="Group_3079" data-name="Group 3079" transform="translate(6240.431 -19656.004)">
      <g id="g204" transform="translate(112.889 24.658)">
        <path id="path206" d="M0,0H22.484C31.59,0,38.378,3.99,38.378,12.4c0,6.163-3.15,9.595-8.614,11.416v.141c6.515,1.333,9.876,4.835,9.876,10.787,0,11.7-10.3,14.148-19.053,14.148H0ZM13.026,19.334h3.642c4.272,0,8.688-1.051,8.688-5.186,0-4.479-4.205-4.9-8.552-4.9H13.026V19.334Zm0,20.311H16.88c4.764,0,9.735-.7,9.735-5.675,0-5.323-5.112-5.811-9.6-5.811h-3.99Z" fill="#fff"/>
      </g>
      <g id="g208" transform="translate(151.072 24.658)">
        <path id="path210" d="M12.955,0H28.924L47.765,48.888H33.477L29.835,38.453H11.486L7.632,48.888H-5.6Zm7.984,10.087H20.8l-6.3,19.123h12.26Z" transform="translate(5.605)" fill="#fff"/>
      </g>
      <path id="path214" d="M0,0H16.6L33.13,33.2h.137L33.06,0H44.968V48.888H28.784L11.7,15.476h-.137l.414,33.411H0Z" transform="translate(206.252 24.658)" fill="#fff"/>
      <g id="g216" transform="translate(255.642 24.658)">
        <path id="path218" d="M0,0H13.026V19.963h.141L27.873,0H43.561L25.493,22.761,44.964,48.888h-16.6l-15.195-22.2h-.141v22.2H0Z" fill="#fff"/>
      </g>
      <g id="g228" transform="translate(316.763 24.658)">
        <path id="path230" d="M0,0H22.484c9.1,0,15.9,3.99,15.9,12.4,0,6.163-3.15,9.595-8.614,11.416v.141c6.515,1.333,9.872,4.835,9.872,10.787,0,11.7-10.294,14.148-19.048,14.148H0ZM13.026,19.334h3.642c4.276,0,8.684-1.051,8.684-5.186,0-4.479-4.2-4.9-8.543-4.9H13.026V19.334Zm0,20.311H16.88c4.76,0,9.735-.7,9.735-5.675,0-5.323-5.112-5.811-9.595-5.811H13.026V39.645Z" fill="#fff"/>
      </g>
      <g id="g232" transform="translate(359.292 24.658)">
        <path id="path234" d="M0,0H23.254c8.684,0,15.758,3.924,15.758,12.331,0,6.511-3.08,10.853-9.383,12.322v.141c4.2,1.122,4.479,4.835,6.933,10.787l4.76,13.307H27.737l-2.8-8.821c-2.661-8.407-4.346-10.514-9.177-10.514H13.026V48.888H0ZM13.026,20.311h3.431c4.205,0,9.528-.141,9.528-5.675,0-4.549-4.553-5.389-9.528-5.389H13.026V20.311Z" transform="translate(0)" fill="#fff"/>
      </g>
      <path id="path236" d="M-495.245,16.2h13.026V65.091h-13.026Z" transform="translate(899.451 8.453)" fill="#fff"/>
      <g id="g246" transform="translate(0)">
        <path id="path248" d="M58.049,0H-10.127A15.175,15.175,0,0,0-25.115,15.356V82.875A15.181,15.181,0,0,0-10.359,98.227H58.012A15.175,15.175,0,0,0,73,82.875l.029-67.518A15.172,15.172,0,0,0,58.049,0M-2.027,90.358l-3.717.041A8.21,8.21,0,0,1-13.9,82.134l-.021-.65V19.131l.025-3.361A8.031,8.031,0,0,1-5.975,7.8H1.587C8.441,7.8,14,13.763,14,20.787a12.836,12.836,0,0,1-3.568,8.924L-8.865,49.289,9.219,67.7a12.9,12.9,0,0,1,3.738,9.015c0,7.533-6.705,13.639-14.984,13.639M53.566,90.3l-33.714-.012s3.895-8.423,3.895-13.639c0-6.362-2.123-12.041-5.451-15.8L6.765,49.091,18.533,36.93c3.506-3.291,5.832-9.135,5.832-15.8A23.533,23.533,0,0,0,20.561,7.8h8.167c6.854,0,12.413,5.96,12.413,12.985a12.836,12.836,0,0,1-3.568,8.924L18.648,49.087l39.306,40.08a8.308,8.308,0,0,1-4.388,1.13M61.8,77.784,33.632,49.074,47.047,35.44c2.728-3.415,4.462-8.556,4.462-14.305A23.825,23.825,0,0,0,47.664,7.649l6,.182A8.21,8.21,0,0,1,61.82,16.1Z" transform="translate(25.115)" fill="#fff"/>
      </g>
    </g>
  </g>
</svg>
