<svg xmlns="http://www.w3.org/2000/svg" width="478" height="305" viewBox="0 0 478 305">
  <g id="Group_3080" data-name="Group 3080" transform="translate(-6212 21885)">
    <rect id="Rectangle_4261" data-name="Rectangle 4261" width="478" height="305" rx="40" transform="translate(6212 -21885)" fill="#ed3024"/>
    <g id="Group_3066" data-name="Group 3066" transform="translate(6243.62 -21761.703)">
      <path id="Path_4169" data-name="Path 4169" d="M19.7,193.835H84.15q0,32.224,0,64.447-32.224,0-64.447,0V193.835Zm8.584,12.1c5.015,6.717,10.1,13.373,15.145,20.07-5,6.725-10.118,13.355-15.121,20.075,11.439.047,22.875,0,34.314.023,5.148-6.661,10.11-13.468,15.293-20.106l-.1.005q-7.575-10.045-15.168-20.075C51.194,205.934,39.738,205.914,28.284,205.934Z" transform="translate(-19.7 -193.835)" fill="#fff" fill-rule="evenodd"/>
      <path id="Path_4170" data-name="Path 4170" d="M73.574,208.461a22.286,22.286,0,0,1,31.949-2.772q-2.954,2.976-5.929,5.927a13.716,13.716,0,0,0-12.2-2.6,13.392,13.392,0,0,0-9.45,9.905A13.9,13.9,0,0,0,82.7,233.041a13.6,13.6,0,0,0,16.928-.237c1.972,1.977,3.988,3.92,5.912,5.95A22.282,22.282,0,0,1,74.1,236.61a21.858,21.858,0,0,1-.53-28.149Z" transform="translate(12.718 -189.627)" fill="#fff" fill-rule="evenodd"/>
      <path id="Path_4171" data-name="Path 4171" d="M95.57,200.936c2.828,0,5.651.005,8.48,0q.01,20.82,0,41.639c-2.827,0-5.655,0-8.483-.005Q95.577,221.752,95.57,200.936Z" transform="translate(30.503 -189.138)" fill="#fff" fill-rule="evenodd"/>
      <path id="Path_4172" data-name="Path 4172" d="M106.779,200.882c2.748-.008,5.5.015,8.252-.012,4.9,8.817,9.681,17.714,14.644,26.5,4.814-8.845,9.7-17.647,14.51-26.494,2.772.008,5.545,0,8.322,0-.015,13.884.028,27.765-.023,41.649-2.823-.042-5.643.008-8.466-.026.018-8.217,0-16.431.012-24.645-4.864,8.3-9.5,16.746-14.447,25-4.728-8.358-9.583-16.642-14.329-24.989.015,8.219,0,16.433.008,24.65-2.828,0-5.652-.005-8.48,0Q106.765,221.7,106.779,200.882Z" transform="translate(37.918 -189.18)" fill="#fff" fill-rule="evenodd"/>
      <path id="Path_4173" data-name="Path 4173" d="M140.111,200.933q8.587.013,17.172,0a14.712,14.712,0,0,1,7.629,2.047c5.464,3.34,6.72,12.009,2.157,16.6a13.473,13.473,0,0,1-1.969,1.638,9.691,9.691,0,0,1,5.082,6.833c.706,3.947-.195,8.48-3.257,11.263-2.441,2.336-5.912,3.179-9.2,3.222-5.869.063-11.743.012-17.612.028q0-20.822,0-41.639Zm8.478,7.609q-.005,4.534,0,9.068c2.5-.006,5,.012,7.5,0a5.811,5.811,0,0,0,4.091-1.4,4.8,4.8,0,0,0,.206-6.042,5.432,5.432,0,0,0-4.29-1.622q-3.756,0-7.5,0Zm0,16.677q0,4.82,0,9.649c2.758,0,5.515,0,8.274.008a4.809,4.809,0,0,0,3.611-8.373,5.8,5.8,0,0,0-3.99-1.288Q152.536,225.211,148.589,225.219Z" transform="translate(59.972 -189.138)" fill="#fff" fill-rule="evenodd"/>
      <path id="Path_4174" data-name="Path 4174" d="M168.807,200.885c1.414.015,2.831-.051,4.247.02a11.169,11.169,0,0,1,1.529,1.923c7.769,10.612,15.475,21.271,23.287,31.853q-.012-16.9,0-33.8h4.387v41.536c-1.477,0-2.956,0-4.43.008q-12.308-16.932-24.626-33.857v33.845c-1.474,0-2.948.032-4.414-.031C168.849,228.552,168.8,214.718,168.807,200.885Z" transform="translate(78.948 -189.18)" fill="#fff" fill-rule="evenodd"/>
      <path id="Path_4175" data-name="Path 4175" d="M195.5,200.877h4.389q0,20.768,0,41.529c-1.462.012-2.925,0-4.383.007Q195.486,221.645,195.5,200.877Z" transform="translate(96.624 -189.175)" fill="#fff" fill-rule="evenodd"/>
      <path id="Path_4176" data-name="Path 4176" d="M202.2,242.581q7.587-20.773,15.214-41.533c2.027.02,4.053,0,6.08.008q7.236,20.621,14.482,41.243c-1.725,0-3.448.005-5.168,0q-1.924-5.516-3.908-11.018-8.595.007-17.18,0c-1.28,3.764-2.508,7.551-3.79,11.314-1.911-.017-3.822.007-5.73-.017ZM213.48,226.3c4.558.02,9.121.005,13.681.008q-3.427-9.993-6.786-20.007C218.085,212.971,215.748,219.624,213.48,226.3Z" transform="translate(101.062 -189.062)" fill="#fff" fill-rule="evenodd"/>
      <path id="Path_4177" data-name="Path 4177" d="M231.7,207.808a21.323,21.323,0,0,1,13.092-6.589c6.158-.62,12.29,1.667,17.27,5.171-.97,1.261-1.992,2.478-2.956,3.74-1.658-2.358-4.595-3.24-7.243-3.953a16.182,16.182,0,0,0-13.721,2.277,18.741,18.741,0,0,0-6.795,10.952c-.525,4.415-.088,9.236,2.532,12.973a18.018,18.018,0,0,0,3.564,3.417,14.628,14.628,0,0,0,9.352,3.057,29.674,29.674,0,0,0,11.9-2.622c0-4.265.007-8.533,0-12.8q-4.873,0-9.746,0,0-1.942,0-3.885c4.613-.027,9.228,0,13.845-.015q.013,9.9,0,19.794c-4.4,2.456-9.45,3.486-14.419,3.981-5.261.11-10.758-1.239-14.852-4.676a20.89,20.89,0,0,1-7.024-13.362C225.978,219.1,227.547,212.527,231.7,207.808Z" transform="translate(117.076 -189.016)" fill="#fff" fill-rule="evenodd"/>
      <path id="Path_4178" data-name="Path 4178" d="M252.542,242.541q7.622-20.725,15.185-41.478c2.027-.011,4.056.012,6.087-.02,4.661,13.124,9.217,26.288,13.862,39.419a6.9,6.9,0,0,1,.391,1.838c-1.635.008-3.26,0-4.887.008-1.323-3.667-2.609-7.35-3.912-11.019q-8.624-.012-17.243,0c-1.231,3.772-2.511,7.528-3.752,11.295-1.911-.012-3.822.063-5.73-.047Zm18.152-36.208c-2.262,6.674-4.623,13.31-6.865,19.992,4.543-.023,9.091-.007,13.634-.007C275.254,219.639,272.961,212.991,270.694,206.332Z" transform="translate(134.37 -189.066)" fill="#fff" fill-rule="evenodd"/>
      <path id="Path_4179" data-name="Path 4179" d="M24.866,201.12c11.454-.02,22.91,0,34.364-.008q7.565,10.045,15.168,20.075-17.194.035-34.387,0C34.971,214.493,29.881,207.836,24.866,201.12Z" transform="translate(-16.282 -189.021)" fill="#ed3024" fill-rule="evenodd"/>
      <path id="Path_4180" data-name="Path 4180" d="M40,213.2q17.194.012,34.387,0l.1,0C69.3,219.827,64.342,226.634,59.194,233.3c-11.439-.023-22.875.023-34.314-.023C29.883,226.552,35,219.922,40,213.2Z" transform="translate(-16.272 -181.029)" fill="#790008" fill-rule="evenodd"/>
    </g>
  </g>
</svg>
