<svg xmlns="http://www.w3.org/2000/svg" width="478" height="307" viewBox="0 0 478 307">
  <g id="Group_3084" data-name="Group 3084" transform="translate(-6212 20116)">
    <rect id="Rectangle_4265" data-name="Rectangle 4265" width="478" height="307" rx="40" transform="translate(6212 -20116)" fill="#0d2b5b"/>
    <g id="Group_3078" data-name="Group 3078" transform="translate(6253.731 -20017.854)">
      <path id="Path_4219" data-name="Path 4219" d="M6.908,57.606c0-5.844-.1-10.737-.418-15.114H17.542L18.067,50h.306a17.562,17.562,0,0,1,15.639-8.662,14.644,14.644,0,0,1,14.074,9.386H48.3a19.174,19.174,0,0,1,6.248-6.355,16.951,16.951,0,0,1,10.222-3.031c8.448,0,16.989,5.733,16.989,22.007V93.261H69.249V65.214c0-8.439-2.92-13.452-9.07-13.452-4.377,0-7.613,3.138-8.964,6.786a18.341,18.341,0,0,0-.627,4.266V93.265H38.078V63.854c0-7.074-2.813-12.088-8.759-12.088-4.786,0-8.017,3.76-9.177,7.3a11.129,11.129,0,0,0-.729,4.169V93.265H6.908ZM130.5,81.071a82.365,82.365,0,0,0,.724,12.194H119.656l-.831-5.626h-.316a18.846,18.846,0,0,1-15,6.768c-10.222,0-15.954-7.395-15.954-15.114,0-12.835,11.354-19.287,30.131-19.185v-.831c0-3.342-1.36-8.866-10.328-8.866A26.947,26.947,0,0,0,93.7,54.162L91.2,45.82c3.755-2.3,10.324-4.484,18.345-4.484,16.27,0,20.968,10.333,20.968,21.372l0,18.364ZM117.989,68.459c-9.075-.214-17.723,1.769-17.723,9.484,0,5,3.24,7.3,7.3,7.3a10.4,10.4,0,0,0,10.008-6.991,9.424,9.424,0,0,0,.418-2.813V68.459Zm21.371-10.853c0-5.844-.107-10.737-.408-15.114H150.2l.622,7.622h.316c2.186-3.969,7.715-8.773,16.159-8.773,8.866,0,18.034,5.733,18.034,21.8V93.261H172.509V64.6c0-7.3-2.715-12.84-9.7-12.84A10.765,10.765,0,0,0,152.8,59.272a13,13,0,0,0-.52,4.159V93.256H139.356l0-35.65ZM240.931,22.1V78.982c0,5.213.214,10.853.418,14.283H229.887l-.525-8.021h-.214c-3.017,5.626-9.177,9.168-16.572,9.168-12.1,0-21.682-10.319-21.682-25.948-.111-17,10.519-27.118,22.727-27.118,6.982,0,11.986,2.92,14.279,6.689h.218V22.1h12.816v0ZM228.114,63.654a17.771,17.771,0,0,0-.316-3.338,11.23,11.23,0,0,0-11.048-9.066c-8.235,0-12.83,7.3-12.83,16.785,0,9.27,4.591,16.052,12.728,16.052a11.313,11.313,0,0,0,11.043-9.075,14.131,14.131,0,0,0,.427-3.751V63.654ZM250,93.265V42.492h12.937V93.265H250Zm22-34.4c0-6.879-.1-11.786-.409-16.368h11.155l.408,9.688h.422c2.5-7.19,8.439-9.688,13.875-9.688a14.169,14.169,0,0,1,3.013,0V53.762a17.7,17.7,0,0,0-3.746-.418c-6.164,0-10.333,3.964-11.475,9.688a23.042,23.042,0,0,0-.413,3.974V93.27H272Zm34.415,34.4V42.492h12.918V93.265H306.414Z" transform="translate(-6.49 23.246)" fill="#fff"/>
      <path id="Path_4220" data-name="Path 4220" d="M277.353,24.368c-6.4-7.3-13.206-4-18.614-1.309-2.275,1.123-18.693,10.43-18.693,10.43-9,3.709-16-.339-18.749-3.746a8.07,8.07,0,0,1-.71-1.026l-.641-1.109a49.929,49.929,0,0,0-3.6-5.389,30.432,30.432,0,0,0-2.59-2.957C207.6,13.046,197.762,8.7,181.32,16.6c-7.785,4.512-33.143,19-33.143,19-9.53,3.922-16.818-.854-19.185-4.359a2.543,2.543,0,0,1-.279-.422l-.311-.529L126.8,27.659q-1.087-1.726-2.33-3.347a33.645,33.645,0,0,0-2.595-2.952c-6.113-6.178-15.9-10.519-32.2-2.767C79.82,24.22,56.9,37.324,56.9,37.324l-.009.009L40.113,46.919l8.68,10.658c3.653,3.481,10.519,9.191,21.139,4.377,0,0,29.314-16.976,29.43-17.027,25.062-13.754,37.428-.613,42.9,8.147.19.274.344.571.515.836l.009.014c.07.107.111.2.172.306l.617,1.012a13.714,13.714,0,0,0,11.874,6.527c2.762-.056,4.637-.956,7.367-2.474l28.362-16.451.06-.028c25.377-13.921,37.952.079,43.323,8.838a21.053,21.053,0,0,0,1.379,2.154c2.66,3.607,6.327,5.97,10.988,5.853a16.664,16.664,0,0,0,7.042-2.247l34-19.626a140.659,140.659,0,0,0-10.616-13.42Z" transform="translate(115.962 -12.327)" fill="#fdd213"/>
    </g>
  </g>
</svg>
