<svg xmlns="http://www.w3.org/2000/svg" width="478" height="307" viewBox="0 0 478 307">
  <g id="Group_3081" data-name="Group 3081" transform="translate(-6212 21178)">
    <rect id="Rectangle_4262" data-name="Rectangle 4262" width="478" height="307" rx="40" transform="translate(6212 -21178)" fill="#f4f6f8"/>
    <g id="Group_3072" data-name="Group 3072" transform="translate(6257.271 -21072.568)">
      <path id="Path_4181" data-name="Path 4181" d="M255.346,347.187l-.373,4.172-3.393,1.529-.09,1.046h14.139V352.65c-2.861,0-4.178-1.012-4.178-3.856V337.548c0-2.993,1.628-7.712,4.5-7.712,1.8,0,.854,3.214,2.892,3.214h1.607a2.9,2.9,0,0,0,2.892-2.892v-.322a3.634,3.634,0,0,0-3.535-3.535H268.52c-4.036,0-5.321,3.451-7.069,5.463V326.3l-9.961.642v1.285h1.286a2.624,2.624,0,0,1,2.571,2.892v16.067ZM233.173,336.9c0-3.928,2.154-9.64,5.784-9.64,3.964,0,5.141,6.275,5.141,10.6H233.173V336.9Zm6.748,15.424c-4.82,0-7.069-7.907-7.069-13.175h17.673v-.964c0-6.967-3.984-11.889-10.926-11.889h-.963c-16.686,0-16.9,27.956,0,27.956h2.249c3.906,0,9.319-3.907,9.319-6.748,0-.658-.662-.591-1.285-.642-.614,2.3-4.036,5.463-7.069,5.463Zm193.764-5.141c0-6.73,6.5-8.676,13.174-8.676v4.177c0,5.29-2.991,9.961-8.034,9.961h-.643c-2.477,0-4.5-2.877-4.5-5.463Zm74.091-18.132c1.754-1.029,2.962-.341,3.349-1.791H499.558v.643c1.525,0,3.535.593,3.535,1.928,0,1.774-9.877,12.574-10.926,12.854V325.015l.388-9.958-7.779.318v.964h1.928c1.039,0,1.607,1.167,1.607,2.249V350.4a2.417,2.417,0,0,1-2.571,2.571H483.17c-7.3,0,4.154-26.671-10.282-26.671-7.991,0-7.133,3.8-10.283,6.105v-5.784l-7.385.408-.005.877c2.429.054,3.535,1.063,3.535,3.534V350.08a2.717,2.717,0,0,1-2.892,2.891h-2.57a2.814,2.814,0,0,1-2.571-1.607c0-5.46-.027-10.928,0-16.389.03-5.825-1.561-8.675-7.391-8.675h-2.249c-4.2,0-9.962,2.1-9.962,5.784v.965c0,.74.223.964.964.964h2.249c.72,0,.705-.254,1.286-.643,0-3.864,1.406-6.427,5.141-6.427,4.255,0,6.105,1.867,6.105,6.106v1.928l-.359,2.886-1.568.006c-5.945,0-15.424,2.242-15.424,7.713v2.892c0,2.355,3.107,5.462,5.463,5.462h4.177c3.1,0,5.909-3.613,7.712-4.82,0,3.174.367,4.82,3.535,4.82h16.388v-.964H465.5c-2.038,0-2.892-1.837-2.892-3.856V338.19c0-4.493,3.013-10.283,7.391-10.283h1.928c3.455,0,4.82,4.413,4.82,8.033v10.6c0,2.948.019,6.427-2.892,6.427h-1.286v.964h23.779v-.964H495.06c-2.038,0-2.892-1.837-2.892-3.856V345.26c0-.985,3.926-5.224,4.82-5.463l8.254,14.008,6.849.13v-.964c-3.825-.319-5.36-4.529-7.2-7.262-.742-1.1-5.334-8.1-5.334-8.8,0,0,4.572-5.071,5.056-5.548a15.219,15.219,0,0,1,3.163-2.3Zm-133.538,16.2c0-4.166,4.431-6.106,8.676-6.106H384.2V344.3c0,4.212-2,8.034-6.105,8.034-1.8,0-3.856-2.657-3.856-4.5v-2.57Zm-.322-9.962c3.587,0,.1-8.033,6.427-8.033h.322c2.753,0,3.534,2.935,3.534,5.784v4.82h-1.928c-7.978,0-14.781,2.116-14.781,10.283,0,2.862,3.808,6.427,6.748,6.427h.965c4.772,0,6.222-2,9-3.856.2,2.365,2.58,3.213,5.142,3.213h4.5V352.65c-3.947,0-3.538-2.016-3.534-5.784q0-4.5,0-9c0-3.745.473-5.854-.965-8.353a6.889,6.889,0,0,0-5.783-3.215H379.38c-4.366,0-10.283,2.479-10.283,6.427,0,2.2,1.993,2.57,4.177,2.57Zm-44.022,9.962c0-3.859,4.162-6.106,8.033-6.106h1.928v6.427c0,3.427-2.6,6.748-6.106,6.748-2.1,0-3.856-2.822-3.856-5.141V345.26Zm-.643-9.962c4.38,0,.223-8.033,6.748-8.033h.322c2.313,0,3.535,2.18,3.535,4.5v6.105c-7.331,0-16.71,1.589-16.71,8.676v.643c0,4.533,2.824,6.483,6.994,7.146,6.11.972,7.408-2.909,10.037-3.612.056,2.511,2.289,3.213,4.82,3.213h4.5V352.65c-3.74,0-3.542-2.118-3.535-5.784.006-3.107,0-6.213,0-9.319,0-7.078-.3-11.247-7.391-11.247h-3.534c-4.376,0-9.962,2.226-9.962,6.427v.642c0,1.32,1.767,1.928,3.213,1.928Zm75.834-1.285H412.8c4.915,0,9,3.557,9,8.355v1.285c0,5.55-4.154,9-9.64,9h-7.069V334.013Zm0-17.352h6.427c5.033,0,9,2.339,9,7.39v.964c0,5.508-4.72,7.713-10.283,7.713h-5.141V316.661Zm7.712-1.286H396.732v.964h1.285a2.416,2.416,0,0,1,2.571,2.571v31.812c0,1.625-2.056,2.249-3.856,2.249v.643h17.995c6.344,0,11.889-3.02,11.889-9.319v-1.606c0-5.816-5.781-9.319-11.568-9.319,2.393-2.08,10.283-.387,10.283-9.318v-.965c0-5.318-6.915-7.712-12.532-7.712ZM307.722,328.55c-3.333,0-6.1,3.962-6.1,7.069v14.139c0,1.483.711,2.57,2.249,2.57h1.607v1.606H291.656V352.65c2.091,0,3.535-.5,3.535-2.57V333.37c0-2.336-1.544-4.82-3.856-4.82-4.469,0-6.427,4.682-6.427,9.318v9.319c0,2.84.04,5.463,2.892,5.463h.964v1.285H274.626v-1.606h2.249c1.563,0,1.928-2.2,1.928-3.856V331.763c0-2.091-.811-3.535-2.892-3.535h-.964v-1.285l9.962-.642v4.82c1.677-1.229,3.573-4.82,7.069-4.82h3.856c2.544,0,4.618,2.572,5.142,4.82h.643c.587-2.2,4.5-4.82,7.712-4.82h2.57c11.98,0,1.751,26.35,9.318,26.35h.965v1.285H308.365V352.65c2.091,0,3.535-.5,3.535-2.57V335.3c0-3.326-.591-6.747-3.856-6.747Zm-99.291-11.569h4.82c3.559,0,6.427,4.126,6.427,8.033v3.535c0,4.539-3.678,7.712-8.355,7.712h-2.892v-19.28Zm17.995,9c0,7.952-5.034,11.568-12.853,11.568h-5.141v11.247c0,2.544.991,3.534,3.534,3.534h.964v1.606h-15.1v-1.606h.964c2.091,0,3.535-.811,3.535-2.892V319.874c0-2.366-1.759-3.213-4.177-3.213v-1.286h16.388c6.857,0,11.889,3.576,11.889,10.6ZM349.5,328.55v-1.607h.964c5.16,0,5.192-8.354,6.748-8.354h1.607v8.354h6.105v1.607h-6.105v19.6c0,2.114,1.126,4.177,3.213,4.177,1.292,0,2.544-1.082,3.535-1.607.206.861.321.606.321,1.285,0,1.343-5.026,2.571-7.07,2.571-4.528,0-6.427-2.518-6.427-7.07V328.55Z" transform="translate(-197.827 -258.178)" fill="#1b1b1c" fill-rule="evenodd"/>
      <g id="Group_3071" data-name="Group 3071" transform="translate(301.691)">
        <g id="Group_3068" data-name="Group 3068" transform="translate(23.819)">
          <path id="Path_4182" data-name="Path 4182" d="M765.362,216.7l12.853,5.142,16.71-5.463Z" transform="translate(-763.756 -216.374)" fill="#c80018" fill-rule="evenodd"/>
          <path id="Path_4183" data-name="Path 4183" d="M762.575,218.846c2.793,1.477,10.53,4.656,12.211,6.427l2.249-2.892v-.321l-12.853-5.141-1.014-.018Z" transform="translate(-762.575 -216.597)" fill="#960e1a" fill-rule="evenodd"/>
          <path id="Path_4184" data-name="Path 4184" d="M787.662,221.837v.322l3.534,2.57,16.067-5.784-1.927-2.571h-.965Z" transform="translate(-773.202 -216.374)" fill="#d32940" fill-rule="evenodd"/>
          <path id="Path_4185" data-name="Path 4185" d="M783.76,229.3l5.783,42.416V228.98l-3.533-2.571Z" transform="translate(-771.549 -220.625)" fill="#c30016" fill-rule="evenodd"/>
          <path id="Path_4186" data-name="Path 4186" d="M780.57,270.726v-1.607L774.786,226.7c-1.681-1.772-9.418-4.95-12.211-6.427l17.054,50.068Z" transform="translate(-762.575 -218.027)" fill="#550b12" fill-rule="evenodd"/>
          <path id="Path_4187" data-name="Path 4187" d="M793.795,226.618v44.344c1.6.931,2.229-3.331,2.7-5.013.634-2.276,1.274-4.083,1.927-6.427,1.235-4.424,2.6-8.367,3.856-12.853,1.234-4.421,2.594-8.371,3.857-12.853.914-3.239,3.491-10.137,3.727-12.983Z" transform="translate(-775.8 -218.264)" fill="#9b0c1a" fill-rule="evenodd"/>
        </g>
        <g id="Group_3069" data-name="Group 3069" transform="translate(0 20.541)">
          <path id="Path_4188" data-name="Path 4188" d="M722.435,263.131l10.926.643,8.676-10.6Z" transform="translate(-721.752 -252.502)" fill="#0083a9" fill-rule="evenodd"/>
          <path id="Path_4189" data-name="Path 4189" d="M750.066,252.679l-8.676,10.6v.321l4.177,1.607,8.354-11.247-2.9-1.952Z" transform="translate(-729.782 -252.012)" fill="#00a7e1" fill-rule="evenodd"/>
          <path id="Path_4190" data-name="Path 4190" d="M721.612,272.7l11.246,1.928v-3.535l-10.925-.643-.683.324Z" transform="translate(-721.25 -259.824)" fill="#005c7b" fill-rule="evenodd"/>
          <path id="Path_4191" data-name="Path 4191" d="M741.39,275.338l26.671,40.488-22.493-42.095-4.177-1.607Z" transform="translate(-729.782 -260.532)" fill="#0081a8" fill-rule="evenodd"/>
          <path id="Path_4192" data-name="Path 4192" d="M760.759,319.02l-.964-2.249-26.67-40.488-11.247-1.928c5.023,7.5,13.593,15.125,19.151,22.622C743.2,299.9,758.746,318.55,760.759,319.02Z" transform="translate(-721.516 -261.477)" fill="#003d5a" fill-rule="evenodd"/>
          <path id="Path_4193" data-name="Path 4193" d="M748.638,266.646,771.13,308.74l.964,2.249c.577-.209.965-.233.965-1.285,0-1.021-15.031-52.15-16.065-54.306Z" transform="translate(-732.852 -253.447)" fill="#005c7b" fill-rule="evenodd"/>
        </g>
        <g id="Group_3070" data-name="Group 3070" transform="translate(43.142 19.923)">
          <path id="Path_4194" data-name="Path 4194" d="M835.107,261.865l16.71-.322-23.458-10.6Z" transform="translate(-809.766 -250.939)" fill="#749f19" fill-rule="evenodd"/>
          <path id="Path_4195" data-name="Path 4195" d="M823.9,251.9l5.463,12.532,3.856-2.249v-.321l-6.747-10.926Z" transform="translate(-807.876 -250.939)" fill="#4b7527" fill-rule="evenodd"/>
          <path id="Path_4196" data-name="Path 4196" d="M840.067,269.658v.322l.965,4.177,16.387-1.285-.016-3.186-.627-.349Z" transform="translate(-814.725 -258.733)" fill="#98b52d" fill-rule="evenodd"/>
          <path id="Path_4197" data-name="Path 4197" d="M796.378,327.161l.643-1.607,20.565-60.411-5.462-12.532c-.593.933-7.8,33.579-8.384,37.246-.943,5.889-2.979,12.547-4.173,18.64C798.92,311.792,795.04,325.237,796.378,327.161Z" transform="translate(-796.1 -251.648)" fill="#2c6029" fill-rule="evenodd"/>
          <path id="Path_4198" data-name="Path 4198" d="M818.264,272.7,797.7,333.112l25.387-58.483-.965-4.177Z" transform="translate(-796.776 -259.205)" fill="#749c1a" fill-rule="evenodd"/>
          <path id="Path_4199" data-name="Path 4199" d="M822.611,276.754l-25.384,58.484-.644,1.607c2.053,1.194,5.161-4.853,6.168-6.363,1.811-2.716,3.359-5.22,5.206-7.969,3.58-5.331,6.774-10.32,10.345-15.683,7-10.517,13.716-20.937,20.7-31.361Z" transform="translate(-796.304 -261.331)" fill="#5c7b23" fill-rule="evenodd"/>
        </g>
      </g>
    </g>
  </g>
</svg>
